<svg xmlns="http://www.w3.org/2000/svg" width="752" height="564">
  <path fill="#0E0235" stroke="None" d="M0 252c3.04-.9 4.73 1.02 4 4h12c-1.31 6.87 8.04 2.99 12 4 .22 3.33-1.56 9.49 4 8 .57-2.79-1.87-8.87 3-8 2.75 6.03 12.03 5.69 18 8 2.06-11.86 4.09-23.62 10-34 3.05-5.36 5.01-9.74 10-14 7.59-7.59 14.25-7.63 25-8-3.32-1.47-1.72-5.25 2-4 2.06-6.54-3.15-9.32-9-8-.89-2.55-1.51-4.95-5-4 1.21-3.33-2.66-4.83-2-8-2.97.78-4.35-1.27-6-3-3.12 3.99-15.4 3.75-20 5-2.61.71-5.59 3.66-9 3 .4-2.11 1.38-4.66 3-6 5.09-8.75 10.02-17.98 14-27 2.36-5.34 7.59-8.69 12-12-.49-3.46-1.95-11.19 4-10 2-14.27 12.66-23.74 24.08-31.92C117.5 97.9 139.25 95.2 151 104c1.01-1.09 2.22-2.59 3-4-2.46-.64-5.59-4.78-10-4 8.57-5.25-9.73-.28-14-4-4.28-3.71-.95-18.14-2-24-10.26 2.29-10.17-14.48 0-14 2.66-14.72 24.72-11.93 35-21 17.12-5.41 33.64-15.24 43-33h-4c-1.45 1.96-4.8.56-7 1 7.98 9.42-6.41 17.82-13 23-6.7 3.35-8.44 4.62-16.23 7.77-7.79 3.15-5.5-6.87-2.77-10.77-8.25-3.35-9.09-12.27-15.75-17.25C140.58-1.22 124.88 8.41 120 0H0v252M115 50c.94-7.12 4.02-13.34 3-21 5.12 2.36 8 6.59 9.77 12.23C129.54 46.87 118.19 47 115 50Z"/>
  <path fill="#23046C" stroke="None" d="M182 24c-7.2 2.43-14.15 6.15-22 7 4.57-4.52 5.02-11.68-1.25-15.75S151.95 5.7 149 0h-29c4.88 8.41 20.58-1.22 27.25 3.75 6.66 4.98 7.5 13.9 15.75 17.25-2.73 3.9-5.02 13.92 2.77 10.77 7.79-3.15 9.53-4.42 16.23-7.77Z"/>
  <path fill="#4F05C2" stroke="None" d="M182 24c6.59-5.18 20.98-13.58 13-23 2.2-.44 5.55.96 7-1h-53c2.95 5.7 3.48 11.18 9.75 15.25S164.57 26.48 160 31c7.85-.85 14.8-4.57 22-7Z"/>
  <path fill="#0D0017" stroke="None" d="M163 33c-3.93 2.19-7.95 6.14-9 9 3.62-3.96 7.2 1.22 6 6-3.33-.22-9.49 1.56-8-4-2.46.12-6.98-1.08-6 3 7.18 1.22 2.81 11.33 4 17 7.34-.04 5.9 10.03 6 16 13.6-1.3 30.49 7.91 40-6 2.89-3.34 4.61-5.11 9-6 3.54-.72 11.86-4.17 15.02-3.98 3.17.2 5.4 11.99 5.98 13.98-.71-4.86-1.63-9.34-3-14 2.41 2 2.59 5.38 7 4-.75 3.48 4.7 3.86 3 8 3.71 1.38 2.19-3.45 5-4 2.56 1.08 3.34 5.82 8 4 .99 4.35 4.31 8.65 10 8-3.17 11.05 9.42 7.58 16 8-3.71 9.09 7.59 8.93 12.67 7.67 5.08-1.26 15.31 4.15 15.33-3.67 4.01-1.43 3.45 2.17 5 4h18c.74-4.41 3.65-4.46 8-4 4.35.46 4.66-4.97 9-4-.42-2.94-2.04-6.86-6-6 3.55-2.09-2.86-5.65 2-7-3.89-6.49-5.46-10.66-6-19s6.22-13.08 6-18c-.8 1.15-5.72 4.77-6 2 .49 4.3-2.86 7.58-2 12-2.43-1.13-3.86-6.98-4 0-4.01 1.43-3.45-2.17-5-4h-31c.24 4.04.98 9.8-5 8-.38-4.83-5.58-3.13-6-8h-15c.58-3.5 5.38-4.43 6-8-8.57-2.58-8.52 9.09-16 9 .96-5.09-2.99-5.7-8-5 1.43-4.01-2.17-3.45-4-5v-9c6.29.96 7.08-6.45 6-11 5.05-1.67 11.59-6.72 8-13 4.28 3.68 8.23-6.2 10-10h-58c-9.36 17.76-25.88 27.59-43 33Z"/>
  <path fill="#0F0009" stroke="None" d="M336 42c-.04-.9-.16-2.11 0-3 .53-2.91-.41-3.82-1-7 6.33.74 3.09-7.15 9-6-1.04-1.31-5.2-1.33-3-4 1.55 1.76 3.63-.45 2-2-9.06-4.14-4.56-11.34-4-20h-75c-1.77 3.8-5.72 13.68-10 10 3.59 6.28-2.95 11.33-8 13 1.08 4.55.29 11.96-6 11v9c1.83 1.55 5.43.99 4 5 5.01-.7 8.96-.09 8 5 7.48.09 7.43-11.58 16-9-.62 3.57-5.42 4.5-6 8h15c.42 4.87 5.62 3.17 6 8 5.98 1.8 5.24-3.96 5-8h31c1.55 1.83.99 5.43 5 4 .14-6.98 1.57-1.13 4 0-.86-4.42 2.49-7.7 2-12 .28 2.77 5.2-.85 6-2Z"/>
  <path fill="#4F04B9" stroke="None" d="M343 20c13.25 6.06 26.49 11.57 40 17 9.33 3.75 21.06 7.76 31.22 8.78 10.16 1.02 30.35 4.5 32.78-7.78-4.42-5.54-11.55-4.86-17-8-10.23-1.27-18.8-8.03-29-4 7.39-8.64-7.69-8.71-13.25-13.75C382.19 7.21 371.89 4.27 366 0h-27c-.56 8.66-5.06 15.86 4 20Z"/>
  <path fill="#09001B" stroke="None" d="M430 30c5.15.64 14.15 2.81 20.08 5.92 5.93 3.1 19.26 4.02 19.92-3.92 6.45 2.64 4.62-5.07 10-4V16h-12V0H366c5.89 4.27 16.19 7.21 21.75 12.25 5.56 5.04 20.64 5.11 13.25 13.75 10.2-4.03 18.77 2.73 29 4Z"/>
  <path fill="#0F043B" stroke="None" d="M430 30c5.45 3.14 12.58 2.46 17 8-2.43 12.28-22.62 8.8-32.78 7.78-10.16-1.02-21.89-5.03-31.22-8.78 11.56 7.3 12.44 28.02 7 40-3.44.1-3.61-4.61-6-6-.33-.24-1 0-1 0 5.25 6.65 6.16 15.33 16 16-6.76 2.3-15.49.36-23 1 2.07.37 5.25 1.79 8 1 2.94 4.14.01 6.91 0 12-3.88 1.68-7.35 3.91-12 3-.83 4.56-4.81 5.87-7 10 3.05-.68 3.54 3.28 7 2 1.14-7.42 7.59-2.32 11-2 8.68-6.99 24.02-.13 33-6-.15 4.51 8.25 1.32 12 3 .28-2.97.49-8-4-7 .37-4.32.6-8.4-4-9 .23-4.94 6.8-2.35 10-3-1.75 7.35 9.44-1.38 11 6 6.26-3.32 15.24-1.6 23-2-.56-2.52 1.19-6.3-1-8-2.05 2.53-6.49.63-5-3 3.04-.6 4.93 2.61 8 2-8.06-8.66-22.72-10.98-32-19 3.04-6.19 11.93-6.53 18.08-8.92 6.14-2.4 14.49-5 19.92-1.08.56-2.52-1.19-6.3 1-8 13.88 4.41 26.06 15.2 38.23 23.77C523.4 82.34 538.21 87.28 547 100c6.31 5.39 16.64 14.44 21.75 20.25 5.11 5.81 20.39 14.35 19.25 20.75-.36 1.99-1.89 2.93-2 5-12.25-10.38-27.81-14.44-44-16-5.43-1.58-9.67-6.22-17-4-7.33 2.23 2.78 8.39 8.01 7.99 5.23-.39 12.46 2.94 17.01 4.99 4.56 2.04 10.34 5.23 11.98 10.02.84 2.47.74 5.63 2 8 3.33 5.27 9.89 8.87 14.25 13.75 4.36 4.88 9.56 10.34 13.75 15.25 6.74 7.88 4.5 21.26 17 22-.14 2.33-2.61 4.94-5 5-2.35 3.83 7.25 11.11 7.93 17.07.67 5.97 7.39 16.39 4.07 23.93-2.23-1.51-5.34-1.95-7-4-12.37-5.28-17.51 9.38-28.02 13.98-10.52 4.59-21.58 9.21-31.98 14.02-4.48 2.07-8.85 6-14 7 3.03-3.72 6.16-7.22 9-11 8.98-10.5 33.13-20 28-36-2.87-5.55-15.27-3.33-20.67-4.67-5.4-1.34-15.4-1.22-21.33.67-8.48 3.17-16.83-4.7-25-6 .37-3.86 2.71-7.12 3-11 5.2 1.3 7.35 9.36 14 7 1.62.05 4.49.54 6 0-.01-.29 3.13-5.89-.26-6.74-3.38-.86-5.02-2.87-7.74-4.26-2.98-1.04-6.02-1.8-9-3-5.5-2.21-8.07-1.18-13 2-.31 8.02-9.06 16.7-2 24 4 5.38 15.66 11.27 21.69 9.69 6.04-1.57 6.9-.91 12.31 1.31 1.21.5 2.73.56 4 1 4.01 1.4 7.71 3.95 12 5-2.6 5.89-9.64 9.16-14 14-4.62 5.62-8.61 12.84-14 18-.2.4 0 1 0 1-.54 1.49-1.38 3.45-3 4 1.13 2.3 3.97 2.03 1 4 8.13 5.85 16.33 8.41 26 6 .8-.2 1.69-.89 3-1 24.02-5.96 50.71-4.75 76-7-1.84 5.7-2.64 11.58 0 17-7.83 2.18-.84 8.98 4.23 10.77 5.07 1.79 12.22 1.02 14.77 7.23-.65-1.09-1.15-4.12-2-5-2.3-.75-7.52-1.8-7-5-3.38 5.16-8.09-1.85-12-3 6.28-5.28.49-12.03 2.78-19.22 2.29-7.19 1.98-13.76 2.22-22.78 6.44 1.67 9.61-1.56 8-8 3.55-.52 4.6-4.44 4-8 4.58.38 4.92-4.91 9.1-5.9 4.17-.99 11.98 2.55 10.9-4.1 4.55 1.49 9.82 1.64 14 4 1.99-2.55 2.39-6.17 2-10h30c.21-4.18 3.27-7.01 2-12 16.52-1.4 35.15 6.51 48-4v-10c-4.01.68-11.64-.27-10-6-2.13.63-5.2.67-2 3-5.84 1.94-14.28 4.6-20.22 2.78-5.94-1.83-18.68.68-19.78-5.78-3.52-.82-5.47.79-8 2-4.51-2.77-7.73-12.1-16-10-1.48-8.55-11.56-11.98-20-12-.22-3.33 1.56-9.49-4-8-.62-4.02-3.86-7.37-8-8 1.2-6.7-2.77-10.84-8-12 .63-8.25-.83-15.94-1-24-4.77.99-2.45-5.3-3-8-11.41-1.24 4.35-27.01-10-26 1.27-5.49-4.18-13.6-2-19 2.18-5.4-1.32-10.59 0-18 7.7-4.47 6.93-14.88 9.97-23.03 3.04-8.15 6.24-17.15 8.03-25.97 8.64.08 9.03-10.39 13-16h-28c.3 11.77-6.11 18.42-16.69 21.31C595.72 24.19 597.58 7.14 592 0h-31c-2.08 6.99.91 16.46-4 22-3.53-7.4-7.18-14.58-11-22h-78v16h12v12c-5.38-1.07-3.55 6.64-10 4-.66 7.94-13.99 7.02-19.92 3.92-5.93-3.11-14.93-5.28-20.08-5.92Z"/>
  <path fill="#500DC8" stroke="None" d="M561 0h-15c3.82 7.42 7.47 14.6 11 22 4.91-5.54 1.92-15.01 4-22Z"/>
  <path fill="#5110D3" stroke="None" d="M623 0h-31c5.58 7.14 3.72 24.19 14.31 21.31C616.89 18.42 623.3 11.77 623 0Z"/>
  <path fill="#1F0958" stroke="None" d="M752 214v-2c-8.48-8.44-19.33-16.17-24-27-2.23-1.92-1.53 1.49-4 1-2.91-18.68-22.65-18.33-36-26-.48-4.35-6.9-7.57-7-2-1.82-2.18-1.36-7.25-6-6 2.62-9.74-8.21-11.45-9-20-8.26.05-4.18-10.9-7.78-16.22-3.59-5.32-2.38-14.72-2.22-21.78.16-7.06 3.65-13.89 2-22 1.78 12.68 5.12-6.57 4-12 6.73-.13 2.75-8.09 7.11-11.89 4.36-3.8.17-9.39 2.79-13.21 2.63-3.82 3.57-8.82 6.43-12.57S688.3 18.09 688 12c5.31.19 5.46-7.09 12-6V0h-49c-3.97 5.61-4.36 16.08-13 16-1.79 8.82-4.99 17.82-8.03 25.97-3.04 8.15-2.27 18.56-9.97 23.03-1.32 7.41 2.18 12.6 0 18s3.27 13.51 2 19c14.35-1.01-1.41 24.76 10 26 .55 2.7-1.77 8.99 3 8 .17 8.06 1.63 15.75 1 24 5.23 1.16 9.2 5.3 8 12 4.14.63 7.38 3.98 8 8 5.56-1.49 3.78 4.67 4 8 8.44.02 18.52 3.45 20 12 8.27-2.1 11.49 7.23 16 10 2.53-1.21 4.48-2.82 8-2 1.1 6.46 13.84 3.95 19.78 5.78 5.94 1.82 14.38-.84 20.22-2.78-3.2-2.33-.13-2.37 2-3-1.64 5.73 5.99 6.68 10 6Z"/>
  <path fill="#381477" stroke="None" d="M728 185c-3.85-8.92-5.61-15.66-8-25-3.93-4.98-12.54-3.76-16-11-4.42-9.25-7.98-20.24-12.92-29.08-4.95-8.83.96-7.99 3.24-16.6C696.6 94.71 710.65 84.22 708 74c-11.69-.93-9.2-14.62-3.22-22.22 5.97-7.61 8.15-19.02 8.22-28.78.07-9.76 13.13-14.09 15-23h-28v6c-6.54-1.09-6.69 6.19-12 6 .3 6.09-6.81 6.58-9.67 10.33-2.86 3.75-3.8 8.75-6.43 12.57-2.62 3.82 1.57 9.41-2.79 13.21-4.36 3.8-.38 11.76-7.11 11.89 1.12 5.43-2.22 24.68-4 12 1.65 8.11-1.84 14.94-2 22-.16 7.06-1.37 16.46 2.22 21.78 3.6 5.32-.48 16.27 7.78 16.22.79 8.55 11.62 10.26 9 20 4.64-1.25 4.18 3.82 6 6 .1-5.57 6.52-2.35 7 2 13.35 7.67 33.09 7.32 36 26 2.47.49 1.77-2.92 4-1Z"/>
  <path fill="#693AE1" stroke="None" d="M708 74c-.58-2.25-5.05-2.34-6-4 2.22-.12 4.78-.08 6-1-2.21-7.35 11.64-8.39 10-17 4.18-.21 7.01-3.26 12-2 4.1-6.92 13.55-5.71 22-6V0h-24c-1.87 8.91-14.93 13.24-15 23-.07 9.76-2.25 21.17-8.22 28.78-5.98 7.6-8.47 21.29 3.22 22.22Z"/>
  <path fill="#220125" stroke="None" d="M336 39c.69 1.61 3.38 3.17 4 5-.3-2.12-.9-3.82-1-6h3c3.28-3.04 8.53-4.62 12-8 3.42 5.34 8.25.2 13.22 1.78 4.97 1.58 9.68 4.45 14.78 5.22-1.33 2.68-7.2-1.15-7 3 8.07-.59 6.76 6.82 9.92 12.08 3.17 5.25 1.24 13.36-.92 18.92 2.39 1.39 2.56 6.1 6 6 5.44-11.98 4.56-32.7-7-40-13.51-5.43-26.75-10.94-40-17 1.63 1.55-.45 3.76-2 2-2.2 2.67 1.96 2.69 3 4-5.91-1.15-2.67 6.74-9 6 .59 3.18 1.53 4.09 1 7Z"/>
  <path fill="#3F0BB5" stroke="None" d="M115 50c3.19-3 14.54-3.13 12.77-8.77C126 35.59 123.12 31.36 118 29c1.02 7.66-2.06 13.88-3 21Z"/>
  <path fill="#3D012B" stroke="None" d="M342 38c3.09-.38 7.58 2.71 11.07 2.93 3.5.22 8.66 1.64 11.93 3.07 4.98 2.17 9.64 7.54 8.22 13.22-1.42 5.68 6.59 9.74 9.78 13.78 0 0 .67-.24 1 0 2.16-5.56 4.09-13.67.92-18.92-3.16-5.26-1.85-12.67-9.92-12.08-.2-4.15 5.67-.32 7-3-5.1-.77-9.81-3.64-14.78-5.22-4.97-1.58-9.8 3.56-13.22-1.78-3.47 3.38-8.72 4.96-12 8Z"/>
  <path fill="#0A0022" stroke="None" d="M154 100c5.25-3.94 10.54-10.62 17.75-16.25 7.21-5.63 25.31 9.22 24.25-7.75-.03-.5-.15-1.55 0-2-9.51 13.91-26.4 4.7-40 6-.1-5.97 1.34-16.04-6-16-1.19-5.67 3.18-15.78-4-17-.98-4.08 3.54-2.88 6-3-1.49 5.56 4.67 3.78 8 4 1.2-4.78-2.38-9.96-6-6 1.05-2.86 5.07-6.81 9-9-10.28 9.07-32.34 6.28-35 21-10.17-.48-10.26 16.29 0 14 1.05 5.86-2.28 20.29 2 24 4.27 3.72 22.57-1.25 14 4 4.41-.78 7.54 3.36 10 4Z"/>
  <path fill="#750BC7" stroke="None" d="M340 44c1.03 7.41 2.67 14.58 4 22 1.88 6.94 2.61 20.8 12 20 9.39-.8 22.36 1.17 32 1 1.57-10.16-7.17-15.28-13.23-20.77-6.06-5.49-.01-17.81-9.77-22.23-3.27-1.43-8.43-2.85-11.93-3.07-3.49-.22-7.98-3.31-11.07-2.93h-3c.1 2.18.7 3.88 1 6m23 20c10.14 4.12 2.28 26.88-7.68 17.68-9.95-9.21-3.44-15.65-1.39-28.75 2.04-13.1 17.7-.04 9.07 11.07Z"/>
  <path fill="#330121" stroke="None" d="M336 42c.22 4.92-6.54 9.66-6 18s2.11 12.51 6 19c.68 1.14.89 2.92 2 4 2.22 1.03 9.38-.67 9-1-1.43-4.97-2.09-10.9-3-16-1.33-7.42-2.97-14.59-4-22-.62-1.83-3.31-3.39-4-5-.16.89-.04 2.1 0 3Z"/>
  <path fill="#4C097D" stroke="None" d="M344 66c.91 5.1 1.57 11.03 3 16 2.31 8.06 21.14 5.47 29 6 7.51-.64 16.24 1.3 23-1-9.84-.67-10.75-9.35-16-16-3.19-4.04-11.2-8.1-9.78-13.78S369.98 46.17 365 44c9.76 4.42 3.71 16.74 9.77 22.23 6.06 5.49 14.8 10.61 13.23 20.77-9.64.17-22.61-1.8-32-1s-10.12-13.06-12-20Z"/>
  <path fill="#745EDE" stroke="None" d="M708 74c2.65 10.22-11.4 20.71-13.68 29.32-2.28 8.61-8.19 7.77-3.24 16.6 4.94 8.84 8.5 19.83 12.92 29.08.51.56 2.58.81 3 2 .21-2.23-.93-9.14 2-5 2.26-3.46-1.9-4.22-1-8 9.11-3.48 5.97-11.04 8-18 11.25-3.45 11.46-18.28 14-29 3.44-2.55 10.56-3.4 10-9 5.05 1.27 7.66-1.77 12-2V44c-8.45.29-17.9-.92-22 6-4.99-1.26-7.82 1.79-12 2 1.64 8.61-12.21 9.65-10 17-1.22.92-3.78.88-6 1 .95 1.66 5.42 1.75 6 4Z"/>
  <path fill="#CE84F2" stroke="None" d="M363 64c8.63-11.11-7.03-24.17-9.07-11.07-2.05 13.1-8.56 19.54 1.39 28.75 9.96 9.2 17.82-13.56 7.68-17.68Z"/>
  <path fill="#22075B" stroke="None" d="M383 114c-3.46 2.79-15.16 4.57-16 8 3.22-5.25 18.81.41 20-10 10.22.5 22.07 3.03 32.22 2.78 10.15-.26 24.54 5.08 30.78-2.78 13.89 4.45 27.42 12.24 36 25 5.27 6.17 10.37 13.05 14 20-3.67-1.07-8.39-1.9-12 0-.45 2.11-3.46 1.53-3 4 3.67 1.35 8.38 4.12 7 9-18.48 4.25-39.93-3.77-60-3-6.3 0-12.71-.34-19 0-2.56.14-4.64.16-7 1 3.1 3.56 1.96 7.26 4 10-1.14.93-2.55 1.08-4 1 13.47 4.06 27.47 7.38 42 9 4.78.53 9.52 1.27 14 3-1.7 2.81-2.95 6.35-6 8-3.08 1.88-6.88 2.75-10 5-1.28.93-2.56 2.44-4 3 1.48-.22 3.85-.58 6-2-3.3 4.81 3.69 8.17 8 8 1.13-3.58 5.38-5.16 6-9 8.23.63 12.49-11.46 11-19-6.65 1.08-11.98-3.64-17-6 12.05-3.27 24.46 4.29 36 6 3.88.34 4.9 1.7 8-1 3.31-2.88 3.57-5.07 8 0 .62-3.5-1.27-8.32 1-11 1.52 7.84 6.69 14.57 9 22 2.41 6.29 5.48 13.14 7 20-1.89.06-3.29-1.42-5-2 2.72 1.39 4.36 3.4 7.74 4.26 3.39.85.25 6.45.26 6.74.05 2.87 3.38 6.89 2 9 .23.15 0 1 0 1 5.93-1.89 15.93-2.01 21.33-.67 5.4 1.34 17.8-.88 20.67 4.67-1.72-5.38-10.57-4.02-15-6 3.19-3.41 5.54-.22 9 1 3.31-5.53 10.89-2.13 16-1 .29-6.07 3.5-12.19 2-18 2.37-.29 1.52 5.02 3 3-3.19-8.11-1.05-16.72 0-25 .27-2.16.24-3.98 1-6-3.01 1.03-5.48 7.12-8 6-1.89-3.88 3.4-11.52 1-16-4.51-.77-7.75-4.46-12-6-10.91-6.02-19.46-21.98-25-32 5.95 3.7 13.89 5.16 18 11-1.64-4.79-7.42-7.98-11.98-10.02-4.55-2.05-11.78-5.38-17.01-4.99-5.23.4-15.34-5.76-8.01-7.99 7.33-2.22 11.57 2.42 17 4-4.7-2.65-2.69-9.66-5.93-14.07-3.23-4.42-.47-11.67-.07-16.93.18-2.32-.13-4.68 0-7 4.99-.23 6.93 6.1 11 8-8.79-12.72-23.6-17.66-35.77-26.23C499.06 65.2 486.88 54.41 473 50c-2.19 1.7-.44 5.48-1 8-5.43-3.92-13.78-1.32-19.92 1.08-6.15 2.39-15.04 2.73-18.08 8.92 9.28 8.02 23.94 10.34 32 19-3.07.61-4.96-2.6-8-2-1.49 3.63 2.95 5.53 5 3 2.19 1.7.44 5.48 1 8-7.76.4-16.74-1.32-23 2-1.56-7.38-12.75 1.35-11-6-3.2.65-9.77-1.94-10 3 4.6.6 4.37 4.68 4 9 4.49-1 4.28 4.03 4 7-3.75-1.68-12.15 1.51-12-3-8.98 5.87-24.32-.99-33 6m80-55c5.06 10.01 19.24 15.81 16 29-14.98-4.25-28.23-14.56-43-20 5.92-6.93 18.31-5.94 27-9Z"/>
  <path fill="#540AC4" stroke="None" d="M463 59c-8.69 3.06-21.08 2.07-27 9 14.77 5.44 28.02 15.75 43 20 3.24-13.19-10.94-18.99-16-29Z"/>
  <path fill="#5906C0" stroke="None" d="M205 68c-5.93 2.06-8.56 8.79-4.23 13.23 4.33 4.44 2.76 13.15 9.23 14.77 1.31.13 2.7-.2 4 0 5.81.89 7.98 10.76 15 9 .54-4.57-.65-8.64-1-13-.11-1.96.28-4.05 0-6-.93-2.86-1.55-4.94-2-8-.58-1.99-2.81-13.78-5.98-13.98-3.16-.19-11.48 3.26-15.02 3.98Z"/>
  <path fill="#150025" stroke="None" d="M226 78c.45 3.06 1.07 5.14 2 8 1.35 4.17 2.52 9.25 3 14 3.32-.51 3.23-6.09 0-7 5.51-4.4 3.75 4.82 9 3-.04 5.44-.29 10.88 1 16 3.81-.87 12.35 2.68 11-4 4.01-1.43 3.45 2.17 5 4h79c-2-5.35 5.95-2.57 4-8h12c-1.43-4.01 2.17-3.45 4-5-3.92-2.51-.01-3.55 2-4-8.34-2-13.81-7.14-20-12-1.11-1.08-1.32-2.86-2-4-4.86 1.35 1.55 4.91-2 7 3.96-.86 5.58 3.06 6 6-4.34-.97-4.65 4.46-9 4-4.35-.46-7.26-.41-8 4h-18c-1.55-1.83-.99-5.43-5-4-.02 7.82-10.25 2.41-15.33 3.67-5.08 1.26-16.38 1.42-12.67-7.67-6.58-.42-19.17 3.05-16-8-5.69.65-9.01-3.65-10-8-4.66 1.82-5.44-2.92-8-4-2.81.55-1.29 5.38-5 4 1.7-4.14-3.75-4.52-3-8-4.41 1.38-4.59-2-7-4 1.37 4.66 2.29 9.14 3 14Z"/>
  <path fill="#330480" stroke="None" d="M196 74c-.15.45-.03 1.5 0 2 2.55 5.19 7.6 19.39 14 20-6.47-1.62-4.9-10.33-9.23-14.77-4.33-4.44-1.7-11.17 4.23-13.23-4.39.89-6.11 2.66-9 6Z"/>
  <path fill="#210337" stroke="None" d="M154 100c-.78 1.41-1.99 2.91-3 4-11.75-8.8-33.5-6.1-44.92 2.08C94.66 114.26 84 123.73 82 138c-5.95-1.19-4.49 6.54-4 10-4.41 3.31-9.64 6.66-12 12 4.09-7.35 13.42-9.6 20.23-13.77 6.81-4.17 15.58-8.64 22.77-12.23 9.61-6.01 19.76-10.99 30-16 6.16-5.39 12.72-10.74 18-17 3.01 9.51 14.87 4.79 19 13-3.26.55-5.95 2.76-9 4-1.83 1.27-4.48 3.34-4 6 3.25.62 3.7 3.49 1 5 3.33 1.45 5.14-3.5 8-1 3.98-1.97 8.54-3.23 12-6-2.85-1.83-4.98-.11-8 0 1.83-9.02 13.14-11.17 22.01-10.99 8.87.17 21.63-4.39 27.99 3.99-12.22 2.4-26.64 6.95-39 4-.3 1.25-1.83 1.71-2 3 6.17 5.52 12.39 10.69 19 15 1.68 1.09 3.12 2.31 5 3-9.34 1.7-20.11 1.15-30 2-.87.21-2.49 1.82-4 1 10.58 17.69-5.25 32.23-9 49-7.41-.31-16.48-2.04-23-1 1.5.47 2.33.82 4 1 5.56.59 10.18.68 15 2 9.81 1.43 19.24 4.24 29 6 2.52-6.37 8.41-2.62 13-2 .52-2.23-1.54-3.73-1-6-6.68-2.83-13.3-6.09-20-9 6.19-7.6 16.4-13.73 14-25h19c-5.03-3.72-14.95.71-21-1 .45-5.84-.49-11.2-4-13 6.03-2.87 14.66.85 21-2 2.99 7.81 10.42 2.95 15.67 6.33S221.21 160.35 217 158c6.78 11.66 7.29 25.18 15 36 1.04-1.89-.61-5.21 4-4 .1 3.67 5.58 1.32 8 2 .36-7.22 10.91-3.2 17-4 6.09-.8 14.68.6 21 0-.12-7.54 11.99-4.79 13-12 .35 2.86-.27 5.39-1 8 4.89 1.12 8.42-2.24 10-6 6.47-1.11 6.61 6.12 12 6 .17-2.72-.61-5.67 1-8 6.89 1.88 5.3-8.46 12-8-2.22-3.09 1.83-5.27 1-9 6.5 1.28 8.31-6.92 14-8 .95-17.28 19.04-2.48 29-5 9.96-2.53 23.03 3.76 32 2-5.73-2.85-13.24-4.75-19-5 .5-8.68-11.31-4.35-15-9-.87-.66-1.87-1.08-3-1-.82-3.75 3.84-5.07 5-8-.86-2.31-8.95.55-6-3 .84-3.43 12.54-5.21 16-8-3.41-.32-9.86-5.42-11 2-3.46 1.28-3.95-2.68-7-2 2.19-4.13 6.17-5.44 7-10 4.65.91 8.12-1.32 12-3 .01-5.09 2.94-7.86 0-12-2.75.79-5.93-.63-8-1-7.86-.53-26.69 2.06-29-6 .38.33-6.78 2.03-9 1 6.19 4.86 11.66 10 20 12-2.01.45-5.92 1.49-2 4-1.83 1.55-5.43.99-4 5h-12c1.95 5.43-6 2.65-4 8h-79c-1.55-1.83-.99-5.43-5-4 1.35 6.68-7.19 3.13-11 4-1.29-5.12-1.04-10.56-1-16-5.25 1.82-3.49-7.4-9-3 3.23.91 3.32 6.49 0 7-.48-4.75-1.65-9.83-3-14 .28 1.95-.11 4.04 0 6 .6 4.04 3.48 9.04 2 14-7.18 1.12-12.09-5.59-16-10-1.3-.2-2.69.13-4 0-6.4-.61-11.45-14.81-14-20 1.06 16.97-17.04 2.12-24.25 7.75-7.21 5.63-12.5 12.31-17.75 16.25Z"/>
  <path fill="#6F74D8" stroke="None" d="M704 149c3.46 7.24 12.07 6.02 16 11-.51-2.01-.35-2.59-2-4 3.15.35 7.3.46 6-4 7.49 2.12 7.55-3.65 13-6 2.68 4.34-1.57 12.34 5 14 2.05-7.22.54-15.38 1-23 4.12 1.4 5.07-2.88 9-2V80c-4.34.23-6.95 3.27-12 2 .56 5.6-6.56 6.45-10 9-2.54 10.72-2.75 25.55-14 29-2.03 6.96 1.11 14.52-8 18-.9 3.78 3.26 4.54 1 8-2.93-4.14-1.79 2.77-2 5-.42-1.19-2.49-1.44-3-2Z"/>
  <path fill="#38047E" stroke="None" d="M214 96c3.91 4.41 8.82 11.12 16 10 1.48-4.96-1.4-9.96-2-14 .35 4.36 1.54 8.43 1 13-7.02 1.76-9.19-8.11-15-9Z"/>
  <path fill="#44159E" stroke="None" d="M536 99c.34-1.58 1.39-4.12 2-6 16.56 15.94 35.47 30.76 50 48 1.14-6.4-14.14-14.94-19.25-20.75-5.11-5.81-15.44-14.86-21.75-20.25-4.07-1.9-6.01-8.23-11-8-.13 2.32.18 4.68 0 7Z"/>
  <path fill="#6D20D2" stroke="None" d="M536 99c-.4 5.26-3.16 12.51.07 16.93 3.24 4.41 1.23 11.42 5.93 14.07 16.19 1.56 31.75 5.62 44 16 .11-2.07 1.64-3.01 2-5-14.53-17.24-33.44-32.06-50-48-.61 1.88-1.66 4.42-2 6Z"/>
  <path fill="#751ACA" stroke="None" d="M139 118c-.25.22 0 1 0 1 5.16 1.46 4.99 1.59 2 5 2.29 1.9 10.01-2.26 8 3 5.98-1.63 12.41-6.14 18-9 3.05-1.24 5.74-3.45 9-4-4.13-8.21-15.99-3.49-19-13-5.28 6.26-11.84 11.61-18 17Z"/>
  <path fill="#100022" stroke="None" d="M184 122c.35.23 1 0 1 0 .17-1.29 1.7-1.75 2-3 12.36 2.95 26.78-1.6 39-4-6.36-8.38-19.12-3.82-27.99-3.99-8.87-.18-20.18 1.97-22.01 10.99 3.02-.11 5.15-1.83 8 0Z"/>
  <path fill="#5410C5" stroke="None" d="M367 122c-2.95 3.55 5.14.69 6 3-1.16 2.93-5.82 4.25-5 8 1.13-.08 2.13.34 3 1 4.68 2.02 14.14-.57 17.68 4.32 3.53 4.9 8.15 6.48 15 7 6.85.52 13.12 2.53 20.32 1.68-2.43 7.6-16.84-.95-22 5 5.89-.52 14.72-2.4 19.25 1.75 4.52 4.15 5.18 11.49 10.75 13.25 20.07-.77 41.52 7.25 60 3 1.38-4.88-3.33-7.65-7-9-.46-2.47 2.55-1.89 3-4 .74-3.43-1.13-17.67-2-20-8.58-12.76-22.11-20.55-36-25-6.24 7.86-20.63 2.52-30.78 2.78-10.15.25-22-2.28-32.22-2.78-1.19 10.41-16.78 4.75-20 10Z"/>
  <path fill="#591081" stroke="None" d="M109 134c9.9-4.95 20.62-9.38 30-15 0 0-.25-.78 0-1-10.24 5.01-20.39 9.99-30 16Z"/>
  <path fill="#531053" stroke="None" d="M149 127c-3.45.94-4.49-.29-8-1-.99 1.33-1.05 3.57-3 4-2.12 6.19 16.55 8.27 14 17-1.55 1.22-4.02 1.26-5 3 3.02 2.48 9.53 2.2 13 4-.94 2.94-4.5 2.94-6 5 12.19 7.37 2.43 17.73-6.69 8.69-9.13-9.03-17.66 2.01-26.31-5.69-7.9-3.1-14.22-4.48-23-3-3.15.53-11.4 1.26-14 3 7.68-3.57 12.97 9.13 15.7 14.3 2.74 5.16 10.82 12.57 14.3 17.7 4.01-3.12.45-5.11 6-2-.72-2.53-1.02-5.25-1-8 8.18 1.62 15.84 5.16 24 7 6.52-1.04 15.59.69 23 1 3.75-16.77 19.58-31.31 9-49 1.51.82 3.13-.79 4-1-7.28 0-16.19-.25-19-8 4.15-1.31 8.63-3.44 12-6-2.86-2.5-4.67 2.45-8 1 2.7-1.51 2.25-4.38-1-5-.48-2.66 2.17-4.73 4-6-5.59 2.86-12.02 7.37-18 9Z"/>
  <path fill="#8645D5" stroke="None" d="M109 134c-7.19 3.59-15.96 8.06-22.77 12.23C79.42 150.4 70.09 152.65 66 160c-3.98 9.02-8.91 18.25-14 27 1.98-1.01 4.39 2.63 6 3 4.6-1.25 16.88-1.01 20-5-.72-1.34-.74-8.17-6-8 6.12-.39 5.84-3.1 5-9 7.56 2.67 4.02-4.61 7-6 2.6-1.74 10.85-2.47 14-3-1-.1-2.73.47-3-1 2.9.9 4.06-2.92 7-2 1.19-10.42 15.44-12.53 20-22 5.65 3.61 11.86-4.73 16-4 1.95-.43 2.01-2.67 3-4 3.51.71 4.55 1.94 8 1 2.01-5.26-5.71-1.1-8-3 2.99-3.41 3.16-3.54-2-5-9.38 5.62-20.1 10.05-30 15Z"/>
  <path fill="#7B1ACB" stroke="None" d="M172 128c-3.37 2.56-7.85 4.69-12 6 2.81 7.75 11.72 8 19 8 9.89-.85 20.66-.3 30-2-1.88-.69-3.32-1.91-5-3-6.86-3.66-14.22-8.17-19-15 0 0-.65.23-1 0-3.46 2.77-8.02 4.03-12 6Z"/>
  <path fill="#3B0374" stroke="None" d="M204 137c-6.61-4.31-12.83-9.48-19-15 4.78 6.83 12.14 11.34 19 15Z"/>
  <path fill="#9E5ADF" stroke="None" d="M98 159c8.78-1.48 15.1-.1 23 3-2.94-4.76 7.66-13.16 10.3-16.7 2.65-3.53 3.93-1.24 8.73-1.33 4.79-.09 5.04 4.44 6.97 6.03.98-1.74 3.45-1.78 5-3 2.55-8.73-16.12-10.81-14-17-4.14-.73-10.35 7.61-16 4-4.56 9.47-18.81 11.58-20 22-2.94-.92-4.1 2.9-7 2 .27 1.47 2 .9 3 1Z"/>
  <path fill="#341055" stroke="None" d="M217 158c-.44.16-1 0-1 0 .54 5.48 4.03 12.32 4 18-.03 5.68 7.12 8.6 8 14 .86 5.26-3.18 11.75 0 17-2.72-.13-5.45-3.11-7 0-.85 1.4.18 4.52-1 6 5.81 1.34 12.06 6.46 8 13-.38 1.58.29 3.4 0 5-11.39-1.72-23.34 5.34-22 18-5.48.95-11.15 5.31-18.02 4.98-6.88-.33-10.4 5.96-12.98 11.02 2.09-1.77 5.49-2.85 5-6 1.1 3.95 4.01 1.14 8 1 1.46 7.48 12.1 8.5 20 8-2.59 5.83 12.64 5.01 14.67 3.67 2.03-1.34-2.21-11.9 5.33-9.67 7.54 2.24 8.95 2.23 16 0-.89 7.22 4.53 1.58 8 2 .71-6.3 10.37-12.62 16-8 .09-3.11 5.91-1.24 4-6 7.06 1.72 12.02-2.8 18-1 1.55-3.6 12.88-9.71 15-4 8.27-5.84 14.77-6.95 23.29-10.71 8.52-3.76 10.14-13.91 8.71-20.29 1.16-1.92 3.24 1.32 4-1-6.24-1.46 6.56-5.06 8-5-.99-.09-2.02.14-3 0-4.13-.57-8.53-1.61-13-1 2.74-2.9-.74-6.15-4-5-1.97-4.01 1.95-6.83 5-9 .77-3.79-4.28-5.1-4-8 .65-6.85 7.58-9.62 3-17-.49-.78-1.93-1.8-2-3-.41-6.76 10.08-6.43 12.75-13.25s12.38-8.16 18.25-6.75c3.57.86 6.92 3.06 10 4 1.63.18 2.9.73 4 1 2.72.67 6.3 1.66 9 2 1.93.24 4.05 0 6 0 3.62 0 7.4.32 11 0 5.16-5.95 19.57 2.6 22-5-7.2.85-13.47-1.16-20.32-1.68s-11.47-2.1-15-7c-3.54-4.89-13-2.3-17.68-4.32 3.69 4.65 15.5.32 15 9 5.76.25 13.27 2.15 19 5-8.97 1.76-22.04-4.53-32-2-9.96 2.52-28.05-12.28-29 5-5.69 1.08-7.5 9.28-14 8 .83 3.73-3.22 5.91-1 9-6.7-.46-5.11 9.88-12 8-1.61 2.33-.83 5.28-1 8-5.39.12-5.53-7.11-12-6-1.58 3.76-5.11 7.12-10 6 .73-2.61 1.35-5.14 1-8-1.01 7.21-13.12 4.46-13 12-6.32.6-14.91-.8-21 0s-16.64-3.22-17 4c-2.42-.68-7.9 1.67-8-2-4.61-1.21-2.96 2.11-4 4-7.71-10.82-8.22-24.34-15-36Z"/>
  <path fill="#5765C5" stroke="None" d="M720 160c2.39 9.34 4.15 16.08 8 25 4.67 10.83 15.52 18.56 24 27v-77c-3.93-.88-4.88 3.4-9 2-.46 7.62 1.05 15.78-1 23-6.57-1.66-2.32-9.66-5-14-5.45 2.35-5.51 8.12-13 6 1.3 4.46-2.85 4.35-6 4 1.65 1.41 1.49 1.99 2 4Z"/>
  <path fill="#7929D2" stroke="None" d="M488 157c3.61-1.9 8.33-1.07 12 0-3.63-6.95-8.73-13.83-14-20 .87 2.33 2.74 16.57 2 20Z"/>
  <path fill="#7533CE" stroke="None" d="M569 170c-.77-.81-1.47-2.05-2-3 3.26.22 5.52-.03 8 2-3.35-3.35-8.8-7.87-11-12-1.26-2.37-1.16-5.53-2-8-4.11-5.84-12.05-7.3-18-11 5.54 10.02 14.09 25.98 25 32Z"/>
  <path fill="#AB70E1" stroke="None" d="M121 162c8.65 7.7 17.18-3.34 26.31 5.69 9.12 9.04 18.88-1.32 6.69-8.69 1.5-2.06 5.06-2.06 6-5-3.47-1.8-9.98-1.52-13-4-1.93-1.59-2.18-6.12-6.97-6.03-4.8.09-6.08-2.2-8.73 1.33-2.64 3.54-13.24 11.94-10.3 16.7Z"/>
  <path fill="#12021F" stroke="None" d="M216 158s.56.16 1 0c4.21 2.35 15.92-6.29 10.67-9.67S214.99 149.81 212 142c-6.34 2.85-14.97-.87-21 2 3.51 1.8 4.45 7.16 4 13 6.05 1.71 15.97-2.72 21 1Z"/>
  <path fill="#5B11A0" stroke="None" d="M331 165c3.46-3.44 7.27-5.61 10.25-9.75 2.98-4.14 9.53-6.34 10.75-10.25h10c-5.87-1.41-15.58-.07-18.25 6.75S330.59 158.24 331 165Z"/>
  <path fill="#8323D4" stroke="None" d="M331 165c.07 1.2 1.51 2.22 2 3 1.08 1.11 2.78 2.13 4 3 3.4-7.56 13.65-4.73 18.08-9.92 4.43-5.19 15.63-6.09 10.92-13.08 1.99.28 3.78 1.48 6 1-3.08-.94-6.43-3.14-10-4h-10c-1.22 3.91-7.77 6.11-10.75 10.25-2.98 4.14-6.79 6.31-10.25 9.75Z"/>
  <path fill="#944CDD" stroke="None" d="M333 168c4.58 7.38-2.35 10.15-3 17 .61 3.17 10.83-5.95 14.23-7.77 3.39-1.82 10.96-6.91 14.52-11.48 3.56-4.57 14.36-6 10.25-13.75 2.72.63 4.41-2.07 7-2-1.1-.27-2.37-.82-4-1-2.22.48-4.01-.72-6-1 4.71 6.99-6.49 7.89-10.92 13.08S340.4 163.44 337 171c-1.22-.87-2.92-1.89-4-3Z"/>
  <path fill="#9F6CE2" stroke="None" d="M330 185c-.28 2.9 4.77 4.21 4 8 8.91-6.24 17.17-12.51 25.08-19.92 7.91-7.41 13.65-21.72 26.92-17.08 1.67 5.92 9.11 8.94 14 12-.3 1.25-1.83 1.71-2 3 1.58-2.17 4.4-3.23 7-3-4.5-1.97-6.26-4.86-11.23-6.77-4.97-1.91-5.58-6.31-8.77-9.23-2.7-.34-6.28-1.33-9-2-2.59-.07-4.28 2.63-7 2 4.11 7.75-6.69 9.18-10.25 13.75-3.56 4.57-11.13 9.66-14.52 11.48-3.4 1.82-13.62 10.94-14.23 7.77Z"/>
  <path fill="#7F27D4" stroke="None" d="M402 152c-3.6.32-7.38 0-11 0 1.84.24 4.69 1.92 7 2-3.48 3.81 10.04 5.96 10 12 1.57.39 4.22-.94 5 1 6.29-.34 12.7 0 19 0-5.57-1.76-6.23-9.1-10.75-13.25-4.53-4.15-13.36-2.27-19.25-1.75Z"/>
  <path fill="#954CDF" stroke="None" d="M405 168c.5.04 1 0 1 0 2.36-.84 4.44-.86 7-1-.78-1.94-3.43-.61-5-1 .04-6.04-13.48-8.19-10-12-2.31-.08-5.16-1.76-7-2-1.95 0-4.07.24-6 0 3.19 2.92 3.8 7.32 8.77 9.23 4.97 1.91 6.73 4.8 11.23 6.77Z"/>
  <path fill="#A58EE5" stroke="None" d="M334 193c-3.05 2.17-6.97 4.99-5 9 3.26-1.15 6.74 2.1 4 5 4.47-.61 8.87.43 13 1-.31-.15 6.74-10.54 8.26-13.74 1.51-3.21 5.43-13.17 7.52-16.48 2.08-3.32 5.32-13.43 11.3-12.7 5.97.72 11.35-6.19 16.17 3.67 4.83 9.85 5.7 27.12 14.07 33.93 8.36 6.81 8.35 4.83 17.68 7.32-4.65 1.02-11.42.77-16 4h1c12.12-2.26 23.25-5.08 36-7 1.44-.56 2.72-2.07 4-3 .95-1.12 2.08-2.45 2-4-16.56 5.6-35.85-3.84-46-18 .3-1.25 1.83-1.71 2-3-2.97.11-5.16-.68-8-1-.63-2.72 2.07-4.41 2-7 .17-1.29 1.7-1.75 2-3-4.89-3.06-12.33-6.08-14-12-13.27-4.64-19.01 9.67-26.92 17.08-7.91 7.41-16.17 13.68-25.08 19.92Z"/>
  <path fill="#331474" stroke="None" d="M575 169c4.8 4.8 9.14 10.54 14 15 .83.76 2.22 1.28 3 2-4.19-4.91-9.39-10.37-13.75-15.25-4.36-4.88-10.92-8.48-14.25-13.75 2.2 4.13 7.65 8.65 11 12Z"/>
  <path fill="#8B37CD" stroke="None" d="M203 192c.16.07 4.06.22 3 3 3.93-.79 7.44-.2 12 0s6.52-5.66 8-1c.14-1.69-.84-6.06 2-4-.88-5.4-8.03-8.32-8-14 .03-5.68-3.46-12.52-4-18h-19c2.4 11.27-7.81 17.4-14 25 6.7 2.91 13.32 6.17 20 9Z"/>
  <path fill="#2E0840" stroke="None" d="M78 185c1.65 1.73 3.03 3.78 6 3-.66 3.17 3.21 4.67 2 8 3.49-.95 4.11 1.45 5 4 5.85-1.32 11.06 1.46 9 8-3.72-1.25-5.32 2.53-2 4-10.75.37-17.41.41-25 8 5.53-4.72 7.41-6 15-6 7.74 0 13.17-2.37 19.08-6.92 5.92-4.55 12.79 2.39 18.92 3.92 2.04.51 3.98.3 6 1 3.12-.88 2.8-5.86 3-9-6.33-1.79-13.73-3.44-15-11-5.55-3.11-1.99-1.12-6 2-3.48-5.13-11.56-12.54-14.3-17.7-2.73-5.17-8.02-17.87-15.7-14.3-2.98 1.39.56 8.67-7 6 .84 5.9 1.12 8.61-5 9 5.26-.17 5.28 6.66 6 8Z"/>
  <path fill="#BEB8EE" stroke="None" d="M346 208c.98.14 2.01-.09 3 0 1.24.12 4.44 2.06 5 2 1.89-.21.14-2.23 0-3 10.11-3.6 14.22-15.35 22-21 1.14 2.46 4.82 3.88 8 4 0 3.63 2.59 8.68 7 8 .22 5.34 8.18 9.83 7 16 1.28.28 3.5-.76 4 1 1.18-.36 1.62-.99 3-1 4.58-3.23 11.35-2.98 16-4-9.33-2.49-9.32-.51-17.68-7.32-8.37-6.81-9.24-24.08-14.07-33.93-4.82-9.86-10.2-2.95-16.17-3.67-5.98-.73-9.22 9.38-11.3 12.7-2.09 3.31-6.01 13.27-7.52 16.48-1.52 3.2-8.57 13.59-8.26 13.74Z"/>
  <path fill="#7F59D7" stroke="None" d="M569 170c4.25 1.54 7.49 5.23 12 6 2.4 4.48-2.89 12.12-1 16 2.85-2.07 5.27-4.88 8-7 .27-.21.66-.98 1-1-4.86-4.46-9.2-10.2-14-15-2.48-2.03-4.74-1.78-8-2 .53.95 1.23 2.19 2 3Z"/>
  <path fill="#591871" stroke="None" d="M398 171c.07 2.59-2.63 4.28-2 7 2.84.32 5.03 1.11 8 1 .5-.02 1.5.03 2 0 1.45.08 2.86-.07 4-1-2.04-2.74-.9-6.44-4-10 0 0-.5.04-1 0-2.6-.23-5.42.83-7 3Z"/>
  <path fill="#8A61DC" stroke="None" d="M500 184c-.53 4.34 4.28 10.53 6 14 3.26-2.33 10.64 2.69 12-3-2.31-7.43-7.48-14.16-9-22-2.27 2.68-.38 7.5-1 11-4.43-5.07-4.69-2.88-8 0Z"/>
  <path fill="#471E79" stroke="None" d="M442 207c-12.75 1.92-23.88 4.74-36 7 2.74 1.43 5.87.1 9 2-2.17 4.84 5.82 5.53 9 7-1.03 2.37-5.04-.46-6 2 3.3-.3 6.41.36 9 1 9.39 2.33 19.14 9.12 28 9-3.76-1.37-8.44-2.79-11-6 7.83-4.55 16.42 8.93 22 6 .77-.81 1.48-2.05 2-3-4.19-1.91-6.72-6.34-11-8-.38-2.36 3.81-5.17 1-7-.91-5.2 3.37-9.14 9.7-13.3 6.32-4.17 8.41-12.31 6.3-19.7-3.99.17-7.26-2.15-11-3 8.94-1.63 18.66 5.79 29 4-11.54-1.71-23.95-9.27-36-6 5.02 2.36 10.35 7.08 17 6 1.49 7.54-2.77 19.63-11 19-.62 3.84-4.87 5.42-6 9-4.31.17-11.3-3.19-8-8-2.15 1.42-4.52 1.78-6 2Z"/>
  <path fill="#946EE0" stroke="None" d="M446 204c3.12-2.25 6.92-3.12 10-5 1.46-1.9-6.03-10.21-8-11-14.53-1.62-28.53-4.94-42-9-.5.03-1.5-.02-2 0-.17 1.29-1.7 1.75-2 3 10.15 14.16 29.44 23.6 46 18 .08 1.55-1.05 2.88-2 4Z"/>
  <path fill="#5C36C8" stroke="None" d="M458 217c.06-3.77 1.84-5.8 5-9 8.43 4.43 14.26 13.45 14 23-1.75 1-4 .92-6 2 5.17 6.89 17.08-2.58 18 5 2.78.1 5.56.49 7-2-7.06-7.3 1.69-15.98 2-24 4.93-3.18 7.5-4.21 13-2-2.95-2.59-3.36-8.68-5-12-1.72-3.47-6.53-9.66-6-14-3.1 2.7-4.12 1.34-8 1-10.34 1.79-20.06-5.63-29-4 3.74.85 7.01 3.17 11 3 2.11 7.39.02 15.53-6.3 19.7-6.33 4.16-10.61 8.1-9.7 13.3Z"/>
  <path fill="#A37DDA" stroke="None" d="M120 192c1.27 7.56 8.67 9.21 15 11-.2 3.14.12 8.12-3 9 1.37.47 3.1 2.21 5 2 .15 7.37-2.96 13.9-4 21-13.99.2-6.73-15.24-7-24-6.13-1.53-13-8.47-18.92-3.92C101.17 211.63 95.74 214 88 214c4.57 1.69 6.91 9.14 10.75 12.25 3.85 3.11 8.03 9.16 11.25 12.75-.09-.1 3.19.38 1 3 3.1-.65 6.07.23 5 4 4.77 1.01 6.13-2.81 10 0 5.47-8.05 11.97-3.94 19.01-5.99 7.04-2.05 16.46.19 24.99-.01 6.97-6.4 19.39-4.06 29-6 9.61-1.94 16.16-2.58 27-4-.3-1.57.25-3.61 2-4 4.06-6.54-2.19-11.66-8-13 1.18-1.48.15-4.6 1-6-4.99.02-12.18 1.77-20.23 1.79-8.05.01-16.74 1.82-25.77 1.21-9.03-.61-19.81.46-29 0-2.17-4.81-4.5-10.37-2-17 1.6-.27 3.99 2.43 5 0-1.43-.18-1.06-.62-2-1-1.67-.18-2.5-.53-4-1-8.16-1.84-15.82-5.38-24-7-.02 2.75.28 5.47 1 8Z"/>
  <path fill="#8475D2" stroke="None" d="M588 185c1.13 3.27-.17 3.97-1 7-1.05 8.28-3.19 16.89 0 25 .2.52.74 1.18 1 2 .01-.93 3.1-2.56 1-4 5.02-1.96 11.8.36 15-2 2.39-.06 4.86-2.67 5-5-12.5-.74-10.26-14.12-17-22-.78-.72-2.17-1.24-3-2-.34.02-.73.79-1 1Z"/>
  <path fill="#5439A5" stroke="None" d="M580 192c2.52 1.12 4.99-4.97 8-6-.76 2.02-.73 3.84-1 6 .83-3.03 2.13-3.73 1-7-2.73 2.12-5.15 4.93-8 7Z"/>
  <path fill="#C5CBF1" stroke="None" d="M354 210c-4.63.48-9.8-1.08-14 1 .08 1.26 2.06.56 2 2 1.64-.11.99.52 2 1 9.12 4.33 22.71 6.41 33 6 8.26-1.44 16.97-2.58 25-5-.5-1.76-2.72-.72-4-1 1.18-6.17-6.78-10.66-7-16-4.41.68-7-4.37-7-8-3.18-.12-6.86-1.54-8-4-7.78 5.65-11.89 17.4-22 21 .14.77 1.89 2.79 0 3Z"/>
  <path fill="#502FAA" stroke="None" d="M58 190c-1.61-.37-4.02-4.01-6-3-1.62 1.34-2.6 3.89-3 6 3.41.66 6.39-2.29 9-3Z"/>
  <path fill="#5D2ABD" stroke="None" d="M456 199c3.05-1.65 4.3-5.19 6-8-4.48-1.73-9.22-2.47-14-3 1.97.79 9.46 9.1 8 11Z"/>
  <path fill="#9C62D6" stroke="None" d="M203 192c-.54 2.27 1.52 3.77 1 6-4.59-.62-10.48-4.37-13 2-9.76-1.76-19.19-4.57-29-6-4.3-.63-8.57-.45-13-1-1.01 2.43-3.4-.27-5 0-2.5 6.63-.17 12.19 2 17 9.19.46 19.97-.61 29 0 9.03.61 17.72-1.2 25.77-1.21 8.05-.02 15.24-1.77 20.23-1.79 1.55-3.11 4.28-.13 7 0-3.18-5.25.86-11.74 0-17-2.84-2.06-1.86 2.31-2 4-1.48-4.66-3.44 1.2-8 1-4.56-.2-8.07-.79-12 0 1.06-2.78-2.84-2.93-3-3Z"/>
  <path fill="#59207D" stroke="None" d="M149 193c4.43.55 8.7.37 13 1-4.82-1.32-9.44-1.41-15-2 .94.38.57.82 2 1Z"/>
  <path fill="#947CDC" stroke="None" d="M506 198c1.64 3.32 2.05 9.41 5 12 2.98 1.2 6.02 1.96 9 3 1.71.58 3.11 2.06 5 2-1.52-6.86-4.59-13.71-7-20-1.36 5.69-8.74.67-12 3Z"/>
  <path fill="#734F95" stroke="None" d="M341 213c.48-.09 1 0 1 0 .06-1.44-1.92-.74-2-2 4.2-2.08 9.37-.52 14-1-.56.06-3.76-1.88-5-2-1.44-.06-14.24 3.54-8 5Z"/>
  <path fill="#9E9AE7" stroke="None" d="M458 217c2.81 1.83-1.38 4.64-1 7 4.28 1.66 6.81 6.09 11 8-.52.95-1.23 2.19-2 3 .98-.69 1.92-1.54 3-2-1.73-1.99-2.06-3.74-1-6 3.04 1.33 5.25 2.65 8 4 .5.04 1 0 1 0 .26-9.55-5.57-18.57-14-23-3.16 3.2-4.94 5.23-5 9Z"/>
  <path fill="#B996E2" stroke="None" d="M132 212c-2.02-.7-3.96-.49-6-1 .27 8.76-6.99 24.2 7 24 1.04-7.1 4.15-13.63 4-21-1.9.21-3.63-1.53-5-2Z"/>
  <path fill="#8092D1" stroke="None" d="M588 219c1.83 5.77 1.82 14.68 9.75 16.25 7.92 1.58 7.44 9.78 11.25 14.75 1.66 2.05 4.77 2.49 7 4 3.32-7.54-3.4-17.96-4.07-23.93-.68-5.96-10.28-13.24-7.93-17.07-3.2 2.36-9.98.04-15 2 2.1 1.44-.99 3.07-1 4Z"/>
  <path fill="#372262" stroke="None" d="M175 265c-3.01 2.55-4.78 6.98-8 9-3.02 1.89-8.85 2-11.25 5.75-2.4 3.76-6.54 6.94-10.75 6.25 1.92 2.97-2.11 1.66-4 2 .7 5.82-5.94 3.7-7-1-2.84 1.43 3.31 5.28-1.09 5.92-4.39.64-7.62-.31-11.91.08 2.43 2.13 6.82.47 10 1-5.27 2.64 9.18 4.01 7-1 5.08 2.61 8.2-2.72 14-1 .49-2.5 2.98-4.66 6-4-1.43 4.01 2.17 3.45 4 5-2.62 1.18-1.96 4.41-2 7 8.72 1.85 21.33-6.5 21 7 7.2-1.24 12.17-4.13 17-9 1.45 2.45.92 5.43 2 8 2.28-1.24 4.61-2.76 8-2-1.59 5.43 2.5 6.42 6 8-.2-5.78 6.14-7.86 9-12 .28 1.99 1.48 3.78 1 6 .48.85.03 2.59 2 2-1.05-5.92 5.36-6.65 10-6-.22-5.04 4.73-9.05 10-8-1.46-4.44 2.93-4.28 6-4 1.16-3.43 5.62-4.42 2-8 4.72.81 8.25-2.81 13-2 .39-4.4 2.18-3.73 6-6 11.8-6.41 21.31-13.61 31.67-22.33 10.37-8.71 26.5-8.6 37.33-17.67-3.56-5.61 5.77-15.22-1-18 .24-1.67 2.85-.17 3-2-1.01-.48-.36-1.11-2-1 0 0-.52-.09-1 0-.76 2.32-2.84-.92-4 1 1.43 6.38-.19 16.53-8.71 20.29-8.52 3.76-15.02 4.87-23.29 10.71-2.12-5.71-13.45.4-15 4-5.98-1.8-10.94 2.72-18 1 1.91 4.76-3.91 2.89-4 6-5.63-4.62-15.29 1.7-16 8-3.47-.42-8.89 5.22-8-2-7.05 2.23-8.46 2.24-16 0-7.54-2.23-3.3 8.33-5.33 9.67-2.03 1.34-17.26 2.16-14.67-3.67-7.9.5-18.54-.52-20-8-3.99.14-6.9 2.95-8-1 .49 3.15-2.91 4.23-5 6m15 28c5.23 1.62 2.87 10.68-3 9-5.87-1.68-2.76-10.78 3-9Z"/>
  <path fill="#523EAD" stroke="None" d="M73 220c-4.99 4.26-6.95 8.64-10 14-.21 1.24 1.72 4.19 0 6 6.5-1.08 9.58 6.94 17 6 .73 6.8 7.43 5.83 12 4-.9 5.68 7.77 4.06 11.01 5.99 3.24 1.92 11.86 3.58 8.99-2.99-.28-4.08-.51-10.24-2-14-3.22-3.59-7.4-9.64-11.25-12.75-3.84-3.11-6.18-10.56-10.75-12.25-7.59 0-9.47 1.28-15 6Z"/>
  <path fill="#582B7C" stroke="None" d="M273 274c2.58-.53 5.22.83 7 1 4.55-.17 7.67.39 11-3 .2-.32.79-.73 1-1 3.05-6.25 10.2-10.02 16-12 8.89-3.04 17.28-7.49 26-11 2.74-1.1 6.14-3.45 9-4 2.2-.42 4.76.11 7 0 .63-.2 2.17-1.57 3-2-1.16.35-5 .29-7 0 4.04-7.15 21.74-8.72 16-22 5.1-1.31 10.87 2.25 15 0-10.29.41-23.88-1.67-33-6-.15 1.83-2.76.33-3 2 6.77 2.78-2.56 12.39 1 18-10.83 9.07-26.96 8.96-37.33 17.67-10.36 8.72-19.87 15.92-31.67 22.33Z"/>
  <path fill="#743A8E" stroke="None" d="M402 215c-8.03 2.42-16.74 3.56-25 5-4.13 2.25-9.9-1.31-15 0 5.74 13.28-11.96 14.85-16 22 2 .29 5.84.35 7 0 7.96-4.12 13.37-11.93 23-11 9.63.93 20.86-4.17 30-5 3.93-.36 8.06 0 12 0-.04 0 0-1 0-1 .96-2.46 4.97.37 6-2-3.18-1.47-11.17-2.16-9-7-3.13-1.9-6.26-.57-9-2h-1c-1.38.01-1.82.64-3 1Z"/>
  <path fill="#271F69" stroke="None" d="M572 238c5.13 16-19.02 25.5-28 36 1.89-.38 5.39 1.8 5 4 10.4-4.81 21.46-9.43 31.98-14.02 10.51-4.6 15.65-19.26 28.02-13.98-3.81-4.97-3.33-13.17-11.25-14.75-7.93-1.57-7.92-10.48-9.75-16.25-.26-.82-.8-1.48-1-2-1.48 2.02-.63-3.29-3-3 1.5 5.81-1.71 11.93-2 18-5.11-1.13-12.69-4.53-16 1-3.46-1.22-5.81-4.41-9-1 4.43 1.98 13.28.62 15 6Z"/>
  <path fill="#5A46BB" stroke="None" d="M530 234s.23-.85 0-1c-3-1.95-4.87-7.62-8-9-6.65 2.36-8.8-5.7-14-7-.29 3.88-2.63 7.14-3 11 8.17 1.3 16.52 9.17 25 6Z"/>
  <path fill="#9A9CE7" stroke="None" d="M530 233c1.38-2.11-1.95-6.13-2-9-1.51.54-4.38.05-6 0 3.13 1.38 5 7.05 8 9Z"/>
  <path fill="#08092E" stroke="None" d="M638 322c2.26.74 4.92.49 7 2-.96 1.57-2.32 3.25-4 4-15.11 3.23-17.52 17.9-31 25 4.12 7.09 14.31 11.43 18 19 .55.79 2.25 1.46 3 2-4.63 7.41-13.55 12.82-12 23-1.94-.06-5.2.46-5 3 1.31-1.01 4.61-.3 6-2 1.23-10.28 6.46-19.2 14-24-3.48-4.9-1.94-9.23-5-14 4.43 1.2 1.77-6.1 7-4-2.22 6.8 1.22 12.28 3 18 2.27-5.09.38-12.16 1-18 12.83 4.86 4.69-16.97 16-10-3.02-10.22 8.63-10.54 16-10v-16c6.44 1.67 9.62-1.56 8-8 9.21-1.85 15.25-.79 24 2-.47-5.85 7.07-6.21 12-6-1.6-6.13 5.59-3.26 9-4 3.41-.74 6.55-3.13 11-2v-14c6.44 1.67 9.61-1.56 8-8 3.66-1.19 4.26 3.17 8 2v-58c-12.85 10.51-31.48 2.6-48 4 1.27 4.99-1.79 7.82-2 12h-30c.39 3.83-.01 7.45-2 10-4.18-2.36-9.45-2.51-14-4 1.08 6.65-6.73 3.11-10.9 4.1-4.18.99-4.52 6.28-9.1 5.9.6 3.56-.45 7.48-4 8 1.61 6.44-1.56 9.67-8 8-.24 9.02.07 15.59-2.22 22.78-2.29 7.19 3.5 13.94-2.78 19.22 3.91 1.15 8.62 8.16 12 3-.52 3.2 4.7 4.25 7 5Z"/>
  <path fill="#9070C4" stroke="None" d="M418 226c2.92 0 6.1-.36 9 0-2.59-.64-5.7-1.3-9-1 0 0-.04 1 0 1Z"/>
  <path fill="#A598DC" stroke="None" d="M110 239c1.49 3.76 1.72 9.92 2 14 4.01 4.6 16.48.47 22.01 2.99 5.53 2.53 17.99-1.5 23.21 1.79 5.22 3.29 6.85 11.06 9.78 16.22 3.22-2.02 4.99-6.45 8-9 2.58-5.06 6.1-11.35 12.98-11.02 6.87.33 12.54-4.03 18.02-4.98-1.34-12.66 10.61-19.72 22-18 .29-1.6-.38-3.42 0-5-1.75.39-2.3 2.43-2 4-10.84 1.42-17.39 2.06-27 4s-22.03-.4-29 6c-8.53.2-17.95-2.04-24.99.01-7.04 2.05-13.54-2.06-19.01 5.99-3.87-2.81-5.23 1.01-10 0 1.07-3.77-1.9-4.65-5-4 2.19-2.62-1.09-3.1-1-3Z"/>
  <path fill="#CADFF4" stroke="None" d="M353 242c-.83.43-2.37 1.8-3 2 3.61-.18 13.59-6.49 13 2 1.8-2.52 8.63-6.13 15.03-5.97 6.41.16 16.1-2.09 21.04-3.96 4.95-1.86 11.49 6.35 18 4.86 6.51-1.5 11.6 3.17 15.18 7.82 3.58 4.66 9.18 8.58 12.75 10.25-4.36-3.26-12.34-11.74-15.75-15.25S416.05 227.49 418 227c-3.56-.33-9.18-.98-12-1-9.14.83-20.37 5.93-30 5-9.63-.93-15.04 6.88-23 11Z"/>
  <path fill="#A6B6E9" stroke="None" d="M418 227c3.2.3 12.28.28 10 5 7.74-4.15 11.7 2.79 18.03 3.97 6.32 1.19 13.06 8.95 14.97 5.03-1.25 6.16 6.99 4.85 11 5-.98-3.86 1.07-6.25 4-3-.6-1.11-1.39-3.18-2-4-1.28-1.74-4.4-2.64-5-5 2.2-1.53 3.9-3.87 7-3-2.75-1.35-4.96-2.67-8-4-1.06 2.26-.73 4.01 1 6-1.08.46-2.02 1.31-3 2-5.58 2.93-14.17-10.55-22-6 2.56 3.21 7.24 4.63 11 6-8.86.12-18.61-6.67-28-9-2.9-.36-6.08 0-9 0-3.94 0-8.07-.36-12 0 2.82.02 8.44.67 12 1Z"/>
  <path fill="#A9CDEB" stroke="None" d="M445 259c1.4 1.05 2.79 2 4 3 .28.23.74.89 1 1 5.18 2.16 10.76 3.88 16 6 1.26-1.93 3-3.91 5-5 3.3-1.34 9.15.41 13 1-3.25-1.85-3.28-5.65-4-9-.95-4.43-1.94-9.22-4-13-2.93-3.25-4.98-.86-4 3-4.01-.15-12.25 1.16-11-5-1.91 3.92-8.65-3.84-14.97-5.03-6.33-1.18-10.29-8.12-18.03-3.97 2.28-4.72-6.8-4.7-10-5-1.95.49 7.84 13.24 11.25 16.75S440.64 255.74 445 259Z"/>
  <path fill="#5A5AC3" stroke="None" d="M474 239c.21.12 3.95.72 5 2-2.81 8.05 4.64 8.51 10.23 9.21 5.59.71 12.03 6.03 17.77 5.79-1.84 1.55-1.77 3.87-4 6 8.41-5.12 19.86-3.84 27-10 .26-.98.35-4.05 0-5-5.41-2.22-6.27-2.88-12.31-1.31-6.03 1.58-17.69-4.31-21.69-9.69-1.44 2.49-4.22 2.1-7 2-.92-7.58-12.83 1.89-18-5 2-1.08 4.25-1 6-2 0 0-.5.04-1 0-3.1-.87-4.8 1.47-7 3 .6 2.36 3.72 3.26 5 5Z"/>
  <path fill="#4B50A4" stroke="None" d="M53 268c.85-1.58 4.42-2.02 4-5 3.75 5.25 12.15 2.5 18 4 .61 2.17-.34 2.59 0 4 3.26 4.28 12.04 3.88 14 9 6.37-1.42 12.55-2.42 20.08-.08 7.53 2.33 15.9-3.57 22.93.07 7.03 3.65 16.33-6.28 20.99 2.01-2.38 1.74-4.8 3.56-8 3v1c4.21.69 8.35-2.49 10.75-6.25 2.4-3.75 8.23-3.86 11.25-5.75-2.93-5.16-4.56-12.93-9.78-16.22-5.22-3.29-17.68.74-23.21-1.79-5.53-2.52-18 1.61-22.01-2.99 2.87 6.57-5.75 4.91-8.99 2.99-3.24-1.93-11.91-.31-11.01-5.99-4.57 1.83-11.27 2.8-12-4-7.42.94-10.5-7.08-17-6 1.72-1.81-.21-4.76 0-6-5.91 10.38-7.94 22.14-10 34Z"/>
  <path fill="#D9F6F9" stroke="None" d="M350 244c-2.24.11-4.8-.42-7 0 .37 1.54-1.43 2.4-1 4-2.71-1.07-6.02 2.81-8 0-8.72 3.51-17.11 7.96-26 11 .43.11 1.76 1.44 2 2 1.67 3.92-1.11 9.86 0 14 2.28 8.52 9.63 15.89 8.22 25.22-1.41 9.34-2.5 19.74-8.22 27.78 1.51 2.84 5.2 6.59 3 10 .46 2.47 2.04 4.72 3 7 4.06-2 15.44 4.11 4 3 6.48 2.12 15.74.96 22 0 .61-5.06 3.54-11.58 4-17 .46-5.42.09-12.29 4-15-.28 3.58-.93 6.65 1 10 17.72-4.61 38.21-.71 57-2 1.84 7.86 4.71 15.69 2 23 6.29-10.17-3.3-20.44-.07-32.07 3.22-11.64-1.21-23.3.07-34.93 2.88.36 1.66 4.59 5 5 1.85-3.91 7.06-3.76 11-5-1.19-5 4.93-3.44 5-8-.1 3 .83 6.43-2 8 3.68-1.68 3.32 7.02 7 3-2.48-2.35-1.36-2.42-1-5 .2-1.43.83-3.09 1-4 .36-1.86.75-4.63 1-6 .35-1.94-.26-4.05 0-6h12c-1.21-1-2.6-1.95-4-3-3.57-1.67-9.17-5.59-12.75-10.25-3.58-4.65-8.67-9.32-15.18-7.82-6.51 1.49-13.05-6.72-18-4.86-4.94 1.87-14.63 4.12-21.04 3.96-6.4-.16-13.23 3.45-15.03 5.97.59-8.49-9.39-2.18-13-2Z"/>
  <path fill="#5E71C8" stroke="None" d="M474 239c.61.82 1.4 2.89 2 4 2.06 3.78 3.05 8.57 4 13 .37.55 4.88-.06 3 3 4.24 1.84 15.46 1.45 14 7 1.45-.44 2.75-2.22 4-3 .64-.4 1.39-.63 2-1 2.23-2.13 2.16-4.45 4-6-5.74.24-12.18-5.08-17.77-5.79-5.59-.7-13.04-1.16-10.23-9.21-1.05-1.28-4.79-1.88-5-2Z"/>
  <path fill="#C9CCF1" stroke="None" d="M334 248c1.98 2.81 5.29-1.07 8 0-.43-1.6 1.37-2.46 1-4-2.86.55-6.26 2.9-9 4Z"/>
  <path fill="#949DE2" stroke="None" d="M530 252c1.37-1.19 3.4-2.15 4-4-1.27-.44-2.79-.5-4-1 .35.95.26 4.02 0 5Z"/>
  <path fill="#2F2776" stroke="None" d="M530 252c-7.14 6.16-18.59 4.88-27 10-.61.37-1.36.6-2 1-.02 1.53 4.91-.79 3 3 3.52-.28 8.62-2.41 12 0 4.89 0 11.31 2.41 16 1 4.36-4.84 11.4-8.11 14-14-4.29-1.05-7.99-3.6-12-5-.6 1.85-2.63 2.81-4 4Z"/>
  <path fill="#131437" stroke="None" d="M0 344c9.56-3.03 23.27 7.49 26-4 9.1-2.14 24.34 4.61 29-4 2.24 4.31 4.93-.07 8 0-.98 4.53 2.42 9.99 1 16 2.41-4.15-.4-11.16 3-15 1.26 14.86 4.38 28.81 13.3 40.7 8.92 11.88 10.3 25.71 14.7 39.3 9.33 18.66 17.69-8.21 30-10-2.96 6.99-9.67 13.34-16 17-.23 6.69 9.88 5.86 13 3 .52 2.14-2.57 2.81-2 5 5.7 4.87 9.09-2.22 12-6-2.01 6.58 3.25 9.52 8 12-2.08 2.18-5.51 10.71 0 9 4.74-6.54 2.2-18.14 5-25 1.64 9.05 1.09 18.65-2 27 2.26 9.07 13.41-1.62 15.3-6.7 1.9-5.08 9.88-12.99 15.7-13.3-.57.94-1.15 1.82-1 3 4.05-1.51 6.82-4.85 11-6 .51-1.41-.81-2.15-2-2-6.83 1.35-13.84-6.44-20.03-6.97-6.18-.54-16.02-3.68-16.97-11.03-6.67 1.23-10.41-5.19-14.75-10.25-4.35-5.05-11.32-5.61-15.02-8.17-3.7-2.56-14.43-9.86-13.23-14.58-3.08-1.18-6.58-1.09-10-1 2-5.35-5.95-2.57-4-8-7.59 3.29-9.1-7.28-16-4-1.84-8.35-2.14-17.13-2-26-5.06-3.7-13.82-2.39-17.75-8.25-3.93-5.86 1.05-16.72-3.25-22.75.71-2.39 1.64-1.74 4-1 5.21 1.64 10.55 7.95 15.75 2.75 5.21-5.2 8.22-6.17 10.25-12.75 2.37-7.71 1.93-10.2 10-12-1.96-5.12-10.74-4.72-14-9-.76.66-3.11-.51-4 0-1.83 4.34-.4 7.93 3 11-4.91-.09-12.87 4.97-17.67 2.67-4.8-2.3-5.33-12.6-3.33-16.67-5.97-2.31-15.25-1.97-18-8-4.87-.87-2.43 5.21-3 8-5.56 1.49-3.78-4.67-4-8-3.96-1.01-13.31 2.87-12-4H4c.73-2.98-.96-4.9-4-4v92Z"/>
  <path fill="#658ACC" stroke="None" d="M484 265c3.72.57 9.02 2.2 13 1 1.46-5.55-9.76-5.16-14-7 1.88-3.06-2.63-2.45-3-3 .72 3.35.75 7.15 4 9Z"/>
  <path fill="#B7C5F0" stroke="None" d="M292 271c-.2.4 0 1 0 1 1.08.15 2.59-1.12 4 0-.24-5.22 7.88-11.19 14-11-.24-.56-1.57-1.89-2-2-5.8 1.98-12.95 5.75-16 12Z"/>
  <path fill="#B5D8F0" stroke="None" d="M292 272c-.43 1.18-.85 1.67-1 3-.11.99.1 2.01 0 3 .71 2.18 7.62 3.77 7 0 3.98 3.75 8.51.18 12-3-1.11-4.14 1.67-10.08 0-14-6.12-.19-14.24 5.78-14 11-1.41-1.12-2.92.15-4 0Z"/>
  <path fill="#7E8BC0" stroke="None" d="M437 268c.63 3.86 3.89 7.94 7 10 .91-1.83.34-4.74 2-6 3.5 1.31 7.34 1.16 11 2-5.76-2.05-17.36-2.02-17-11h10c-.26-.11-.72-.77-1-1h-12c-.26 1.95.35 4.06 0 6Z"/>
  <path fill="#415D9E" stroke="None" d="M53 268c-2 4.07-1.47 14.37 3.33 16.67 4.8 2.3 12.76-2.76 17.67-2.67-3.4-3.07-4.83-6.66-3-11 .89-.51 3.24.66 4 0-.34-1.41.61-1.83 0-4-5.85-1.5-14.25 1.25-18-4 .42 2.98-3.15 3.42-4 5Z"/>
  <path fill="#6863AB" stroke="None" d="M457 274c5.45 1.25 11.11 2.41 16 5-.52-3.64 2.65-6.17 5-8-2.92-.54-.71-.39 0-2-3.46-1.19-6.1-3.82-9-1-.55-1.82 1.75-2.47 2-4-2 1.09-3.74 3.07-5 5-5.24-2.12-10.82-3.84-16-6h-10c-.36 8.98 11.24 8.95 17 11Z"/>
  <path fill="#484594" stroke="None" d="M471 264c-.25 1.53-2.55 2.18-2 4 2.9-2.82 5.54-.19 9 1-.71 1.61-2.92 1.46 0 2 1.93.36 4.05-.21 6 0 3.13.34 6.05 1.98 9 3 8.35.84 13.87-8 23-8-3.38-2.41-8.48-.28-12 0 1.91-3.79-3.02-1.47-3-3-1.25.78-2.55 2.56-4 3-3.98 1.2-9.28-.43-13-1-3.85-.59-9.7-2.34-13-1Z"/>
  <path fill="#5780C0" stroke="None" d="M493 274c1.65.57 4.58.86 6 2 6.3-7.95 15.66 5.83 20 5 .41 1.56-.46 2.69-1 4 5.39-5.16 9.38-12.38 14-18-4.69 1.41-11.11-1-16-1-9.13 0-14.65 8.84-23 8Z"/>
  <path fill="#85A3C9" stroke="None" d="M436 274c.75 4.17 5.59 8.48 10 8v-10c-1.66 1.26-1.09 4.17-2 6-3.11-2.06-6.37-6.14-7-10-.25 1.37-.64 4.14-1 6Z"/>
  <path fill="#7188CB" stroke="None" d="M291 272c-4.61 7.45-12.33.66-18 5-2.07 2.21-3.06 7.53-5 10 2.06.37 6.03.17 6 3 .51 1.63 0 4.28 0 6 .58-1.1 4.3-2.39 6-2-.67-3.7 1.44-6.6 2-10 1.58 5.03 3.39-.78 7 0 .31-2.99.45-6.71 2-9 .15-1.33.57-1.82 1-3 0 0-.2-.6 0-1-.21.27-.8.68-1 1Z"/>
  <path fill="#A5DFEB" stroke="None" d="M457 274c-3.66-.84-7.5-.69-11-2v4c.46 3.52 2.4 5.26 4 8 6.06 4.08 14.9 5.97 21.03 9.97 6.12 4.01 16.59 3.58 20.97 10.03-2.01-8.36-4.24-19.64-7-29-.27-.92-1.77-2.44-1-4-1.95-.21-4.07.36-6 0-2.35 1.83-5.52 4.36-5 8-4.89-2.59-10.55-3.75-16-5Z"/>
  <path fill="#5D9EC7" stroke="None" d="M485 275c.65-3.56 9.28.26 8 5 8.02-4.56 13.9 8.24 19 5-.58 2.85.42 3.4 2 4 .59-1.07 3.09-2.22 4-3 0 0-.2-.6 0-1 .54-1.31 1.41-2.44 1-4-4.34.83-13.7-12.95-20-5-1.42-1.14-4.35-1.43-6-2-2.95-1.02-5.87-2.66-9-3-.77 1.56.73 3.08 1 4Z"/>
  <path fill="#6E61AF" stroke="None" d="M280 275c-3.36.13-4.78-.38-7 2 5.67-4.34 13.39 2.45 18-5-3.33 3.39-6.45 2.83-11 3Z"/>
  <path fill="#B4EFE8" stroke="None" d="M410 347c-2.99 7.21-2.84 12.9-3 21 1.44-11.92 12.11-14.75 21-12-1.46-5.19 5.09-3.02 5-8 5.72 1.29 10.28-2.6 10-8 2.75 1.95 1.86 5.94 2 9-7.31 6.28-5.85 18.13-10 27 .44 8.01 8.68-1.87 10-4 3.91-6.31 17-6.65 14-16 3.05.68 3.54-3.28 7-2-.42-5.07 4.45-5.32 6-9 8.55 3.01 13.97-3.12 19-8 6.5-6.19 12.5-14.6 11-24-3.42-.4-4.25-3.38-7-5 .46 2.41 2.62 7.92-1 9-.46.14-1 0-1 0-2.63 1.38-5.88 3.15-9 4-5.59 1.53-8.29-.05-14.22-2.78-5.94-2.72-6.52 4.48-6.78 9.78-2-3.46 1.18-8.59 0-13 5.98-.69 13.14 6.38 18 1 2.83-2.62 3.82-7.58 5-11-2.32-3.47-9.1-2.93-12.08-5.92-2.97-3-7.98-4.76-11.92-6.08-4.34-1.46-8.38-3.13-14-2-.07-5.84-8.32-4.97-12-8-3.68 4.02-3.32-4.68-7-3 2.83-1.57 1.9-5 2-8-.07 4.56-6.19 3-5 8-3.94 1.24-9.15 1.09-11 5-3.34-.41-2.12-4.64-5-5-1.28 11.63 3.15 23.29-.07 34.93-3.23 11.63 6.36 21.9.07 32.07Z"/>
  <path fill="#59AFC1" stroke="None" d="M485 275c2.76 9.36 4.99 20.64 7 29 .88 3.67 5.13 9.27 2 13 3.62-1.08 1.46-6.59 1-9-1.23-6.41 2.15-10.11 8.25-5.25 6.1 4.87 5.11 10.25 5.75 17.25 2.04-7.32 3.82-.66 3 4 5.84 1.28 2.85 11.42 6 16-3.58-.12-4.48 5.69-4.93 9.07-.44 3.39-4.29 7.89-1.07 9.93 1.56-2.29 2.85-4.95 6-6-.21-5.86 5.3-8.16 6-14 .85 5.93-.64 8.22 2 13 .68-4.3 5.27-3.68 6-8 1.49 2.72-.28 4.96 0 8 4.75-12.39 5.57-26.64 11-39 1.46 3.35 3.89 6.06 6 9 2.67 3.89 12.31 11.92 13 16 .57-1.49 1.6-3.76 2-5 .5-1.55.26-3.47 1-5-.54-3.79-8.59-11.03-10.75-14.25-2.17-3.21-8.84-12.67-12.25-13.75-9.67 2.41-17.87-.15-26-6-3.61-2.6-1.04-1.52-2-5-1.58-.6-2.58-1.15-2-4-5.1 3.24-10.98-9.56-19-5 1.28-4.74-7.35-8.56-8-5Z"/>
  <path fill="#453879" stroke="None" d="M224 306c-.04.35-2.92 9.85-3 10 .26 1.68 4.18 4.95 3 9 3.26.56 7.16-1.06 6-5 2.69.25 5.52 2.38 8 1 5.63-1.57 6.45-7.97 11.75-11.25 5.3-3.27 13.17-2.47 19.25-3.75.51-5.58 3.08-11.15 5-16 .03-2.83-3.94-2.63-6-3 1.94-2.47 2.93-7.79 5-10 2.22-2.38 3.64-1.87 7-2-1.78-.17-4.42-1.53-7-1-3.82 2.27-5.61 1.6-6 6-4.75-.81-8.28 2.81-13 2 3.62 3.58-.84 4.57-2 8-3.07-.28-7.46-.44-6 4-5.27-1.05-10.22 2.96-10 8-4.64-.65-11.05.08-10 6-1.97.59-1.52-1.15-2-2Z"/>
  <path fill="#8AB4CB" stroke="None" d="M435 278c.07 1.33-.05 2.67 0 4 7.67 1.24 13.45 5.61 21 8-3.77-1.68-5-4.29-6-6-1.6-2.74-3.54-4.48-4-8v6c-4.41.48-9.25-3.83-10-8-.17.91-.8 2.57-1 4Z"/>
  <path fill="#94BEE1" stroke="None" d="M549 278c.39-2.2-3.11-4.38-5-4-2.84 3.78-5.97 7.28-9 11 5.15-1 9.52-4.93 14-7Z"/>
  <path fill="#79A9D3" stroke="None" d="M274 296c0 5.56-.91 14.5-6.75 17.25s-12.54 1.75-16 8c-3.47 6.25-7.74 6.99-11.25 12.75 7.9-8.47 13.99-16.51 25.07-18.93 11.09-2.42 13.58-16.71 19.93-24.07 2.71-4.42 5.45-7.63 6-13 .1-.99-.11-2.01 0-3-1.55 2.29-1.69 6.01-2 9-3.61-.78-5.42 5.03-7 0-.56 3.4-2.67 6.3-2 10-1.7-.39-5.42.9-6 2Z"/>
  <path fill="#BCECF2" stroke="None" d="M291 278c-.55 5.37-3.29 8.58-6 13-4.5 7.34-3.88 13.73-7 21-.83 1.94-3.03 3.91 1 4 .87 3.77-2.87 6.2-2 10 .45-1.64 1.97-3.88 2-6 2.47 1.08 1.07 4.76 3 6 1.37-4.36 2.49 2.44 5.89-1.11 3.41-3.55-.7-1.35-1.89-4.89 2.78 1.07 6.61-.68 10 0 1.36 8.26-3.29 13.35 0 20 3.44-1.08 4.07 1.5 5 4 3.59 1.61 2.59-5.44 5.68-3.66 3.1 1.79 2.49 4.14 6.32 3.66v-6c2.2-3.41-1.49-7.16-3-10 5.72-8.04 6.81-18.44 8.22-27.78 1.41-9.33-5.94-16.7-8.22-25.22-3.49 3.18-8.02 6.75-12 3 .62 3.77-6.29 2.18-7 0Z"/>
  <path fill="#445F9D" stroke="None" d="M89 280c-8.07 1.8-7.63 4.29-10 12 4.96-5.49 18.56 5.96 25.67-.33 7.12-6.29 24.54 8.18 26.33-6.67h14c3.2.56 5.62-1.26 8-3-4.66-8.29-13.96 1.64-20.99-2.01-7.03-3.64-15.4 2.26-22.93-.07-7.53-2.34-13.71-1.34-20.08.08Z"/>
  <path fill="#A6D9E6" stroke="None" d="M436 283c3.68 3.03 11.93 2.16 12 8 5.62-1.13 9.66.54 14 2-2.25-1.23-3.27-2.13-6-3-7.55-2.39-13.33-6.76-21-8-.05-1.33.07-2.67 0-4-.36 2.58-1.48 2.65 1 5Z"/>
  <path fill="#05061D" stroke="None" d="M620 398c-1.29 10.78-2.15 20.38-9 29-9.48.36-12.26 10.57-15 18 1.66.18-.9 4.74 3 3 .05-3.41 6.49-2.8 6-7 10.48 2.73 12.86-8.05 21-9-1.29-8.23 6.98-11.6 14-10-.35-3.15-.46-7.3 4-6-.56-3.56.33-7.39 4-8-.61-4.26.83-7.92 1-12 4.78 1.03 8.57-.49 7-6 4.73 1.29 7.2-1.28 6-6 4.01 1.43 3.45-2.17 5-4 5.3-3.14 15.82 1.14 18-6 4.31-1.68 1.47 4.5 5 4 3.36-1.52 7.61-2.55 6-8 4.82-.73 9.88-.23 8 6h12c-2-5.35 5.94-2.57 4-8h20c-1.67-6.44 1.56-9.61 8-8-.9-3.04 1.02-4.73 4-4v-74c-3.74 1.17-4.34-3.19-8-2 1.61 6.44-1.56 9.67-8 8v14c-4.45-1.13-7.59 1.26-11 2s-10.6-2.13-9 4c-4.93-.21-12.47.15-12 6-8.75-2.79-14.79-3.85-24-2 1.62 6.44-1.56 9.67-8 8v16c-7.37-.54-19.02-.22-16 10-11.31-6.97-3.17 14.86-16 10-.62 5.84 1.27 12.91-1 18-1.78-5.72-5.22-11.2-3-18-5.23-2.1-2.57 5.2-7 4 3.06 4.77 1.52 9.1 5 14-7.54 4.8-12.77 13.72-14 24Z"/>
  <path fill="#6491B8" stroke="None" d="M456 290c2.73.87 3.75 1.77 6 3 3.94 1.32 8.95 3.08 11.92 6.08 2.98 2.99 9.76 2.45 12.08 5.92 1.79 2.68-1.98 5.15-.67 8.67 1.32 3.53 4.62 2.83 7.67 3.33 0 0 .54.14 1 0 3.13-3.73-1.12-9.33-2-13-4.38-6.45-14.85-6.02-20.97-10.03-6.13-4-14.97-5.89-21.03-9.97 1 1.71 2.23 4.32 6 6Z"/>
  <path fill="#242D58" stroke="None" d="M79 292c-2.03 6.58-5.04 7.55-10.25 12.75-5.2 5.2-10.54-1.11-15.75-2.75 2.5.26-2.8 4.07-4 1 4.3 6.03-.68 16.89 3.25 22.75 3.93 5.86 12.69 4.55 17.75 8.25-.14 8.87.16 17.65 2 26 6.9-3.28 8.41 7.29 16 4-1.95 5.43 6 2.65 4 8 3.42-.09 6.92-.18 10 1-1.2 4.72 9.53 12.02 13.23 14.58 3.7 2.56 10.67 3.12 15.02 8.17 4.34 5.06 8.08 11.48 14.75 10.25.95 7.35 10.79 10.49 16.97 11.03 6.19.53 13.2 8.32 20.03 6.97 1.18-.23 2.79-4.08 5-3 4.47 5.73 15.76 2.58 23 5 .5.01 1 0 1 0 .25-.25 0-1 0-1-3.57-.28-7.91-1.34-11-2-1.71-.37-5.52-.91-7-2-.5.05-1 0-1 0-2.25-.79-4.69-1.5-7-2-9.48-2.07-21.69-3.09-30.02-7.97-8.34-4.89-16.47-8.18-23.23-14.78-6.75-6.6-16.2-9.23-19.72-18.28-3.53-9.04-9.02-18.1-12.03-26.97 7.19-.78 10.92 5.33 10 12 1.1-.51 1.32-4.72 3-2 .02 0 0 1.5 0 2 3.93 5.79-.94 11.38 2 17 1.37-1.88 3.29-4 6-4 .5-.05 1 0 1 0 1.29 1.31 3.1 2.28 5 2-1.11-2.04 1.89-10.44 3-6 1.12.77 1.96 8.44 2 10 1.31.25 2.89 3.21 5 3-.99-4.33 1.54-5.92 2-1 .9 1.51 2.47 3.08 3 5 2.29-2.43 7.71-3.05 8-7 7.74-1.91 11.73 6.11 18 8 1.18-3.08 1.09-6.58 1-10-7.04 4.3-10.63-4.56-15-7-1.18-6.25 3.55-9.42 3-15 7.74 2.22 8.82-3.56 5.03-8.03-3.79-4.48-1.33-11.95-2.03-17.97 5.67-.8 9.79.06 12 4-1.11-6.47 6.12-6.61 6-12 2.42 4.56 8.78 4.42 14 6-1.63-6.56 13.12-2.82 12 2 3.1-1.4 1.88-5.53 6-2-1.13-5.66 4.64-4.64 4-10 3.02.25 6.1-1.44 7-4 .08-.15 2.96-9.65 3-10 .48-2.22-.72-4.01-1-6-2.86 4.14-9.2 6.22-9 12-3.5-1.58-7.59-2.57-6-8-3.39-.76-5.72.76-8 2-1.08-2.57-.55-5.55-2-8-4.83 4.87-9.8 7.76-17 9 .33-13.5-12.28-5.15-21-7 .04-2.59-.62-5.82 2-7-1.83-1.55-5.43-.99-4-5-3.02-.66-5.51 1.5-6 4-5.8-1.72-8.92 3.61-14 1 2.18 5.01-12.27 3.64-7 1-3.18-.53-7.57 1.13-10-1 4.29-.39 7.52.56 11.91-.08 4.4-.64-1.75-4.49 1.09-5.92 1.06 4.7 7.7 6.82 7 1 1.89-.34 5.92.97 4-2v-1h-14c-1.79 14.85-19.21.38-26.33 6.67-7.11 6.29-20.71-5.16-25.67.33m0 27c6.56 1.53 4.05 11.44-3 10-7.05-1.45-4.5-11.74 3-10m62 35c2.58 5.74-4.61 12.77-8.9 6.9-4.29-5.87 3.98-9.86 8.9-6.9Z"/>
  <path fill="#2E3F72" stroke="None" d="M514 289c.96 3.48-1.61 2.4 2 5 2.97-1.97.13-1.7-1-4 1.62-.55 2.46-2.51 3-4-.91.78-3.41 1.93-4 3Z"/>
  <path fill="#495789" stroke="None" d="M238 321c-4.79 5.39-15.27 9.25-15.93 19.07-.65 9.83 2.92 21.64-.07 31.93 5.64-.44 3.14 7.19 8 8 2.1 1.08 4.9 2.65 8 5-3.26-3.67-4.06-10.1-9-12v-11c2.13 2.43.47 6.82 1 10 1.82-.55 2.47 1.75 4 2-2.95-5.84-1.47-11.91-1-17 .12-1.31-.18-2.69 0-4-.29-4.06 2.14-5.11 4-9 .77-2.56.96-5.53 2-8 .26-.61.67-1.46 1-2 3.51-5.76 7.78-6.5 11.25-12.75 3.46-6.25 10.16-5.25 16-8S274 301.56 274 296c0-1.72.51-4.37 0-6-1.92 4.85-4.49 10.42-5 16-6.08 1.28-13.95.48-19.25 3.75-5.3 3.28-6.12 9.68-11.75 11.25Z"/>
  <path fill="#71BAD1" stroke="None" d="M240 334c-.33.54-.74 1.39-1 2 .54.46 4.78-4.25 5.75-5.25.98-.99 5.12-3.79 5.25-5.75 4.27 2.08 8.7.96 12 3 1.12-2.26 4.69-8.14 7-4 1.56-4.86 6.33-7.55 9-12 3.12-7.27 2.5-13.66 7-21-6.35 7.36-8.84 21.65-19.93 24.07-11.08 2.42-17.17 10.46-25.07 18.93Z"/>
  <path fill="#1E2A64" stroke="None" d="M545 299c3.31-.28 6.69.21 10 0-4.82 8.86 9.52 19.46 13 27-.55 1.01-1.98 1.44-3 2-.74 1.53-.5 3.45-1 5 .34 5.5 7.87 6.87 7.97 12.03.1 5.16-4.66 9.64-5.29 14.65-.62 5.01-5.96 7.16-7.68 10.32-.42 1.94-.63 3.94-1 6-.22 1.22-.58 1.85-1 3 .03 2.37 4.02 5.77 2 9 4.37-2.65 5.98 1.4 5 6 3.13-2.18 6.09-5.04 11-4s1.15-10.52 6-7c.29.22.75.75 1 1 .81.79 2.1 1.38 3 2 6 2.29 14.77 7.39 22 2-1.51 5.83-6.15 10.64-10 16 2.34 1.92 6.25 1.35 9 3 .95-3.64 5.99-3.65 4-9 7.49-.17 8.89-8.38 10.75-13.25 1.87-4.86 12.29-6.96 7.25-12.75-3.69-7.57-13.88-11.91-18-19 13.48-7.1 15.89-21.77 31-25-.12.02-.68-.81-1-1-2.55-6.21-9.7-5.44-14.77-7.23S613.17 311.18 621 309c-2.64-5.42-1.84-11.3 0-17-25.29 2.25-51.98 1.04-76 7m55 26c4.28 1.88.56 10.36-4 8-4.57-2.36-1.54-10.44 4-8Z"/>
  <path fill="#752B76" stroke="None" d="M190 293c-5.76-1.78-8.87 7.32-3 9 5.87 1.68 8.23-7.38 3-9m0 3c1.72 1.72-1.47 5.85-3.67 3.67-2.2-2.18 2-5.34 3.67-3.67Z"/>
  <path fill="#D67496" stroke="None" d="M190 296c-1.67-1.67-5.87 1.49-3.67 3.67 2.2 2.18 5.39-1.95 3.67-3.67Z"/>
  <path fill="#244280" stroke="None" d="M542 300c3.41 1.08 10.08 10.54 12.25 13.75 2.16 3.22 10.21 10.46 10.75 14.25 1.02-.56 2.45-.99 3-2-3.48-7.54-17.82-18.14-13-27-3.31.21-6.69-.28-10 0-1.31.11-2.2.8-3 1Z"/>
  <path fill="#64C1BD" stroke="None" d="M495 308c2.75 1.62 3.58 4.6 7 5 1.5 9.4-4.5 17.81-11 24-2.23 7.44 1 17.38 1 25 .31 3.22 2.12 10.44.35 13.69-1.76 3.25.81 10.59.65 11.31 1.97-1.9 4.18-3.13 6-5-3.38-2.7.94-6.93 5-6-.25-2.69.6-7.03 4-7 .44-4.27 1.72-6.65 4-10-3.22-2.04.63-6.54 1.07-9.93.45-3.38 1.35-9.19 4.93-9.07-3.15-4.58-.16-14.72-6-16 .82-4.66-.96-11.32-3-4-.64-7 .35-12.38-5.75-17.25-6.1-4.86-9.48-1.16-8.25 5.25Z"/>
  <path fill="#6A86A7" stroke="None" d="M49 303c1.2 3.07 6.5-.74 4-1-2.36-.74-3.29-1.39-4 1Z"/>
  <path fill="#68A9BB" stroke="None" d="M481 316c-.12 1.94.79 4.52 3 5 3.12-.85 6.37-2.62 9-4-3.05-.5-6.35.2-7.67-3.33-1.31-3.52 2.46-5.99.67-8.67-1.18 3.42-2.17 8.38-5 11Z"/>
  <path fill="#6BC3C5" stroke="None" d="M239 336c-1.04 2.47-1.23 5.44-2 8-.78 2.62-1.56 4.53-3 7 1.38 1.58.57 7.81 1.98 10.02 1.4 2.22 3.29 5.82 4.02 7.98-1.08-5.71-3.66-10.8-5-17 2.26-5.48 9.23-3.43 12-8 4.22.58 12.25 4.24 11-3 4.35 1.28 10.06 3.76 13 1 .94 2.63-1.71 4.16 2 6-.49-2.73.3-5.02 2-7 1.82 2.6 5.17 3.6 6 0-1.17-6.31-5.18-8.6-4-15-.87-3.8 2.87-6.23 2-10-4.03-.09-1.83-2.06-1-4-2.67 4.45-7.44 7.14-9 12-2.31-4.14-5.88 1.74-7 4-3.3-2.04-7.73-.92-12-3-.13 1.96-4.27 4.76-5.25 5.75-.97 1-5.21 5.71-5.75 5.25Z"/>
  <path fill="#4391A2" stroke="None" d="M532 352c-1.56 4.08-2.17 7.91 2 10-.85 2.31-6.88 4.1-2 7-5.42 1.14-.86 11.61-9 9 1.03 2.76.24 6.22 0 9 .59 1.88 8.87 12.88 0 11 .14.15 1.21 1.81 1 2 2.4 1.1 3.24-2.45 4-3 2.29-3.75.32-8.04 1.2-13.25.87-5.2 4.5-8.92 9.8-10.75.01-8.39 4.22-14.57 6.71-21.29 2.48-6.73.05-16.7 6.29-21.71-3.9-.05-4.33-6.28-3-8-2.11-2.94-4.54-5.65-6-9-5.43 12.36-6.25 26.61-11 39Z"/>
  <path fill="#79C6C2" stroke="None" d="M484 321c-2.21-.48-3.12-3.06-3-5-4.86 5.38-12.02-1.69-18-1 1.18 4.41-2 9.54 0 13 .26-5.3.84-12.5 6.78-9.78 5.93 2.73 8.63 4.31 14.22 2.78Z"/>
  <path fill="#343E68" stroke="None" d="M142 389c.13.47-.1 1.52 0 2 .86 1.16 4.2-.29 5-1 .55-1.64.99-3.4 3-4 .97-.43 4.97-.31 6 0 4.7.42 5.78 3.56 9.75 5.25 3.96 1.69 10.39 1 14.25 1.75 3.32.2 4.95 1.25 8 3 2.74 1.01 6.51 1.16 9 2 2.41 0 5.58 2.03 7 4 .9-4.61 5.86-.56 4 3 4.7-4.06 10.43.65 16 0-1.45-7.28-7.88-16.8-2.89-24.89 4.99-8.1 5.88 5.76 8.89-.11-4.86-.81-2.36-8.44-8-8 2.99-10.29-.58-22.1.07-31.93.66-9.82 11.14-13.68 15.93-19.07-2.48 1.38-5.31-.75-8-1 1.16 3.94-2.74 5.56-6 5 1.18-4.05-2.74-7.32-3-9-.9 2.56-3.98 4.25-7 4 .64 5.36-5.13 4.34-4 10-4.12-3.53-2.9.6-6 2 1.12-4.82-13.63-8.56-12-2-5.22-1.58-11.58-1.44-14-6 .12 5.39-7.11 5.53-6 12-2.21-3.94-6.33-4.8-12-4 .7 6.02-1.76 13.49 2.03 17.97 3.79 4.47 2.71 10.25-5.03 8.03.55 5.58-4.18 8.75-3 15 4.37 2.44 7.96 11.3 15 7 .09 3.42.18 6.92-1 10-6.27-1.89-10.26-9.91-18-8-.29 3.95-5.71 4.57-8 7m54 0c-.17-.43 0-1 0-1-2.67-1.86-5.91-4.27-5-8h-16c-.51-2.16-.93-6.54-4-4-.09.35-.97.8-1 1-.12.98.1 2.01 0 3-10.21-.01-16.69-9.93-9.25-17.25 7.45-7.32 17.34-9.2 26-4.5 8.66 4.7 8.15 12.41 18.47 14.53 10.32 2.12-.25 21.7-7.22 20.22.55-1.82-1.75-2.47-2-4Z"/>
  <path fill="#F9FEFD" stroke="None" d="M342 348c-.63 5.23-.16 12 1 17 1.28 5.52 4.56 14.51 5.93 20.07 1.37 5.57.36 17.59 7.07 18.93 8.04-2.01 7.73 1.93 14 5 .4.2 1 0 1 0 .23-.16.03-1.5 0-2-.11-2.09.73-3.6 1-5 .68-3.48-.22-8.36 4-10-4.26-5.18-1.4-19.59 7-16 .72.1 2.15.3 4 1-.86 4.9 2.01 11.73-2 15 4.09 2.06 4.18 7.17 5 11 .31 1.46.17 3.71 1 5 2.39 3.73 6.46-.36 9-2 5.37-5.59 1.82-13.92 4-21 1.67-5.44 2.88-11.11 3-17 .16-8.1.01-13.79 3-21 2.71-7.31-.16-15.14-2-23-18.79 1.29-39.28-2.61-57 2-1.93-3.35-1.28-6.42-1-10-3.91 2.71-3.54 9.58-4 15-.46 5.42-3.39 11.94-4 17Z"/>
  <path fill="#4F2C63" stroke="None" d="M79 319c-7.5-1.74-10.05 8.55-3 10 7.05 1.44 9.56-8.47 3-10m-5 8c-1.19-13.78 14.72 2.45 0 0Z"/>
  <path fill="#BAF2E6" stroke="None" d="M277 326c-1.18 6.4 2.83 8.69 4 15 .94 5.05 1.89 9.68 2 15 .72-1.44 3.56-2.17 5-2-3.64 7.86 6.98 7.63 12.08 7.07 5.11-.57 12.78 3.28 15.92 6.93 2.13-4.58 8.63-4.35 13.08-2.08 4.44 2.28 11.69-4.19 11.92 2.08 1.67-.24.17-2.85 2-3-1.16-5-1.63-11.77-1-17-6.26.96-15.52 2.12-22 0 11.44 1.11.06-5-4-3-.96-2.28-2.54-4.53-3-7v6c-3.83.48-3.22-1.87-6.32-3.66-3.09-1.78-2.09 5.27-5.68 3.66-.93-2.5-1.56-5.08-5-4-3.29-6.65 1.36-11.74 0-20-3.39-.68-7.22 1.07-10 0 1.19 3.54 5.3 1.34 1.89 4.89-3.4 3.55-4.52-3.25-5.89 1.11-1.93-1.24-.53-4.92-3-6-.03 2.12-1.55 4.36-2 6Z"/>
  <path fill="#893872" stroke="None" d="M74 327c14.72 2.45-1.19-13.78 0 0m5-1c-8.07.55.49-8.11 0 0Z"/>
  <path fill="#DC7795" stroke="None" d="M79 326c.49-8.11-8.07.55 0 0Z"/>
  <path fill="#468197" stroke="None" d="M528 397c3.61-2.6 12.4-4.01 10 4 1.67-2.45 1.88-6.73 4-9 .34-.5.54-2.94 2-1-.43-4.84 2.76-5.95 6-8 2.02-1.91 2.48-6.13 6-6-.49-13.13-.72-25.72 5-37 .46-.62.73-1.3 1-2-.69-4.08-10.33-12.11-13-16-1.33 1.72-.9 7.95 3 8-6.24 5.01-3.81 14.98-6.29 21.71-2.49 6.72-6.7 12.9-6.71 21.29-5.3 1.83-8.93 5.55-9.8 10.75-.88 5.21 1.09 9.5-1.2 13.25m20-31c4.91 1.68 2.79 11.2-3 9-5.79-2.21-2.54-10.89 3-9Z"/>
  <path fill="#415E9C" stroke="None" d="M640 327c.32.19.88 1.02 1 1 1.68-.75 3.04-2.43 4-4-2.08-1.51-4.74-1.26-7-2 .85.88 1.35 3.91 2 5Z"/>
  <path fill="#73317E" stroke="None" d="M600 325c-5.54-2.44-8.57 5.64-4 8 4.56 2.36 8.28-6.12 4-8m-4 6c-1.37-8.91 8.98 1.27 0 0Z"/>
  <path fill="#D3769C" stroke="None" d="M596 331c8.98 1.27-1.37-8.91 0 0Z"/>
  <path fill="#213F75" stroke="None" d="M562 338c-.27.7-.54 1.38-1 2-3.63 8.6-.02 20.86-2 30 1.72-3.16 7.06-5.31 7.68-10.32.63-5.01 5.39-9.49 5.29-14.65-.1-5.16-7.63-6.53-7.97-12.03-.4 1.24-1.43 3.51-2 5Z"/>
  <path fill="#070A1C" stroke="None" d="M0 344v65c2.45-3.91 4.28.36 5-5-6.17-1.7-2.51-14.4-1-20 2.92 7.32 18.57 2.63 28 4-3.46 9.24 7.21 9.86 12 6 7.49 6.37 21.32 4.36 32 6v10c4.98.38 9.44.38 12-3 2.11 3.78 5.34 6.09 7 10-4.4-13.59-5.78-27.42-14.7-39.3-8.92-11.89-12.04-25.84-13.3-40.7-3.4 3.84-.59 10.85-3 15 1.42-6.01-1.98-11.47-1-16-3.07-.07-5.76 4.31-8 0-4.66 8.61-19.9 1.86-29 4-2.73 11.49-16.44.97-26 4Z"/>
  <path fill="#98DAC0" stroke="None" d="M445 372c7.58 4.67 14.23-.78 21 2-5.87 2.74-11.84 9.45-19 7 .77 2.96.7 5.3-2 7 2.94-.47.69 1.17 0 2 6.48 1.46 18.84-3.19 19 4 3.1-1.19 8.23-.12 8-5 3.01 2.08 6.96 4.16 10 0 8.09-7.41 10-16.15 10-27 0-7.62-3.23-17.56-1-25-5.03 4.88-10.45 11.01-19 8-1.55 3.68-6.42 3.93-6 9-3.46-1.28-3.95 2.68-7 2 3 9.35-10.09 9.69-14 16Z"/>
  <path fill="#539FA2" stroke="None" d="M512 359c-2.28 3.35-3.56 5.73-4 10-.28 2.7.69 5.68-1 8 1.52 2.44 3.68.36 5 2 .43 3.9-3.07 6.99-4 11 4.48-2.94 11.36-1.83 15-3 .24-2.78 1.03-6.24 0-9 8.14 2.61 3.58-7.86 9-9-4.88-2.9 1.15-4.69 2-7-4.17-2.09-3.56-5.92-2-10-.28-3.04 1.49-5.28 0-8-.73 4.32-5.32 3.7-6 8-2.64-4.78-1.15-7.07-2-13-.7 5.84-6.21 8.14-6 14-3.15 1.05-4.44 3.71-6 6Z"/>
  <path fill="#BBF0D9" stroke="None" d="M407 368c-.12 5.89-1.33 11.56-3 17-.57 1 2.5-1.37 1-3 7.16-2.96 23.46.84 30-6 4.15-8.87 2.69-20.72 10-27-.14-3.06.75-7.05-2-9 .28 5.4-4.28 9.29-10 8 .09 4.98-6.46 2.81-5 8-8.89-2.75-19.56.08-21 12Z"/>
  <path fill="#45739A" stroke="None" d="M550 383c.37-.23 7.12-5.02 8-7 .37-2.06.58-4.06 1-6 1.98-9.14-1.63-21.4 2-30-5.72 11.28-5.49 23.87-5 37-3.52-.13-3.98 4.09-6 6Z"/>
  <path fill="#6ECBB8" stroke="None" d="M240 369c.38 2.02-.89 5.32 2 6 .82-4.33 6.49-2.84 7-7 4.58.43 8.42 3.36 13 4 2.01.81 4.16 1.87 6 3 4.49 2.75 7.94 3.37 13 5-4.73-4.57.97-7.69 1-1 3.37-5.03 5.73 2.7 11 3-6.75-6.75-9.81-16.6-10-26-.11-5.32-1.06-9.95-2-15-.83 3.6-4.18 2.6-6 0-1.7 1.98-2.49 4.27-2 7-3.71-1.84-1.06-3.37-2-6-2.94 2.76-8.65.28-13-1 1.25 7.24-6.78 3.58-11 3-2.77 4.57-9.74 2.52-12 8 1.34 6.2 3.92 11.29 5 17Z"/>
  <path fill="#3B6A84" stroke="None" d="M233 353c.22-1.56.38-.93 1-2 1.44-2.47 2.22-4.38 3-7-1.86 3.89-4.29 4.94-4 9Z"/>
  <path fill="#404E6B" stroke="None" d="M185 419c-3.33-1.22-8.02-1.98-11-4-.47-.11-1.5-.02-2 0-9.68.37-25.67-8.72-31-17-2.14-3.33-.53-3.05-1-7-.98-2.65-.66-5.24-1-7-.46-4.92-2.99-3.33-2 1-2.11.21-3.69-2.75-5-3 .01.5-.19 1.59 0 2 1.09 2.27 2.75 4.91 2 8-6.85-2.14-7.35-12.52-5-18 .09-.75.97-1.75 1-2-1.11-4.44-4.11 3.96-3 6-1.9.28-3.71-.69-5-2 3.01 2.83 4.32 6.87 4 11-5-.7-9.86-6.71-5-11-2.71 0-4.63 2.12-6 4-2.94-5.62 1.93-11.21-2-17 0 2.84.79 6.98-1 9-.38-3.51-2.56-8.43 1-11-1.68-2.72-1.9 1.49-3 2 .92-6.67-2.81-12.78-10-12 3.01 8.87 8.5 17.93 12.03 26.97 3.52 9.05 12.97 11.68 19.72 18.28 6.76 6.6 14.89 9.89 23.23 14.78 8.33 4.88 20.54 5.9 30.02 7.97Z"/>
  <path fill="#5C848F" stroke="None" d="M233 353c-.18 1.31.12 2.69 0 4 1.56 6.85 5.22 12.45 6 19 6.52.3 9.45-8.37 17.22-4.22 7.77 4.15.76 11.52 1.78 18.22 1.02 6.71.5 15.27 2 22 .16.44 0 1 0 1 .25.25 1 0 1 0-.68-4.1-.67-7.64-1-12-.33-4.36 3.17-5.11 5-8 2.14-6.69 4.35-15.64-3-21-4.58-.64-8.42-3.57-13-4-.51 4.16-6.18 2.67-7 7-2.89-.68-1.62-3.98-2-6-.73-2.16-2.62-5.76-4.02-7.98-1.41-2.21-.6-8.44-1.98-10.02-.62 1.07-.78.44-1 2Z"/>
  <path fill="#513367" stroke="None" d="M141 354c-4.92-2.96-13.19 1.03-8.9 6.9 4.29 5.87 11.48-1.16 8.9-6.9m-3 1c3.12 1.87-.15 8.01-3.67 5.67s.31-7.69 3.67-5.67Z"/>
  <path fill="#AEE8C5" stroke="None" d="M283 356c.19 9.4 3.25 19.25 10 26 3.36 3.36 8.17 6.02 9 11 8.18-.06 22.14-.89 26 7 7.58-1.02 16.94 4.49 21 1 1.45 4.27 2.99-.34 4 5 1.28.27 2.72-.77 3-2-6.71-1.34-5.7-13.36-7.07-18.93-1.37-5.56-4.65-14.55-5.93-20.07-1.83.15-.33 2.76-2 3-.23-6.27-7.48.2-11.92-2.08-4.45-2.27-10.95-2.5-13.08 2.08-3.14-3.65-10.81-7.5-15.92-6.93-5.1.56-15.72.79-12.08-7.07-1.44-.17-4.28.56-5 2Z"/>
  <path fill="#7E386A" stroke="None" d="M138 355c-3.36-2.02-7.19 3.33-3.67 5.67 3.52 2.34 6.79-3.8 3.67-5.67m0 5c-8.91 1.37 1.27-8.98 0 0Z"/>
  <path fill="#CD708C" stroke="None" d="M138 360c1.27-8.98-8.91 1.37 0 0Z"/>
  <path fill="#405A72" stroke="None" d="M170 377c-5.57.14-13.25-3.5-10-10 4-8 16.78-12.34 25.08-7.08 8.3 5.27 10.55 20.59-3.08 18.08-1.89-.35-4.32.05-6-1-1.39-.87-.89-2.49-1-4-1.56-.41-2.69.46-4 1-.17.43.12 1.53 0 2 3.07-2.54 3.49 1.84 4 4h16c-.91 3.73 2.33 6.14 5 8-2.24-4.57-6.79-8.03.08-11.92 6.87-3.88 10.96 1.02 10.14 6.14-.82 5.12-6.35 11.96-10.22 6.78.25 1.53 2.55 2.18 2 4 6.97 1.48 17.54-18.1 7.22-20.22-10.32-2.12-9.81-9.83-18.47-14.53-8.66-4.7-18.55-2.82-26 4.5-7.44 7.32-.96 17.24 9.25 17.25.1-.99-.12-2.02 0-3Z"/>
  <path fill="#000001" stroke="None" d="M596 445c-1.04 1.44-3.11 2.22-5 2-.75 3.75-1.64 7.42-3 11-2.5 9.21-5.65 20.79 0 28-4.57-2.61-6.77-.94-11 0 3.04 4.54-5.78 2.57-4.97 8.03.81 5.45-7.47 3.92-11.03 3.97-4.63 9.62-9.55-2.06-8-8h-7c.55 1.01 1.98 1.44 3 2-2.03 3.99-4.62 7.74-6 12-10.98-1.75-9.29-13.32-12-21-2.63 4.94 1.37 11.21 0 17 .1 1.27 1.97 4.02 1 6-6.92 1.93-10.73-10.53-16-6 .6-3.26-.83-5.91-1-9-1.75.83-.66 3.44-1 5-.09 1.99 0 4.01 0 6 .53 5.42 3.04 11.79 2 18-8.94 2.77-19.18 3.78-23 14-20.71-2.97-38.55 8.06-58.01 7.01-19.45-1.06-43.47-3.51-64.99-3.01-21.52.5-36.79 5.72-58.07 7.93-21.29 2.2-42.81-4.54-63.93-3.93-.64-13.72-14.51-20.48-19.77-31.23S204.55 493.26 210 481c.72-3.48 1.53-7.18 1-11 2.94-1.56 6.01-4.68 7-8-7.75 2.84-10.69 5.69-11.33 15.67-.64 9.98-7.66 8.33-6.67-3.67-1.01.55-1.44 1.98-2 3-3.66 4.78-3.38 2.91-6-3-6.59 3.8-7.25-5.38-7-10-1.88 1.52-7.45 5.73-8 0-2.43.38-4.58 1.12-6 3-.89-1.99-3.53-5.29-1-7 .19-.41.03-1.5 0-2-.16-.63-1.26-2.57-2-3-1.81 3.03-.46 6.88-2 10-4.39-2.68-7.94-9.05-12-13-4.19 1.86-12.19 1.28-14-3h3c3.09-8.35 3.64-17.95 2-27-2.8 6.86-.26 18.46-5 25-4.26 5.87-3.59-8.44-3-10-5.73 4.83-10.38-3.88-17-2v-3c-.57-2.19 2.52-2.86 2-5-3.12 2.86-13.23 3.69-13-3 6.33-3.66 13.04-10.01 16-17-12.31 1.79-20.67 28.66-30 10-1.66-3.91-4.89-6.22-7-10-2.56 3.38-7.02 3.38-12 3v-10c-10.68-1.64-24.51.37-32-6-4.79 3.86-15.46 3.24-12-6-9.43-1.37-25.08 3.32-28-4-1.51 5.6-5.17 18.3 1 20-.72 5.36-2.55 1.09-5 5v155h752V356c-2.98-.73-4.9.96-4 4-6.44-1.61-9.67 1.56-8 8h-20c1.94 5.43-6 2.65-4 8h-12c1.88-6.23-3.18-6.73-8-6 1.61 5.45-2.64 6.48-6 8-3.53.5-.69-5.68-5-4-2.18 7.14-12.7 2.86-18 6-1.55 1.83-.99 5.43-5 4 1.2 4.72-1.27 7.29-6 6 1.57 5.51-2.22 7.03-7 6-.17 4.08-1.61 7.74-1 12-3.67.61-4.56 4.44-4 8-4.46-1.3-4.35 2.85-4 6-7.02-1.6-15.29 1.77-14 10-8.14.95-10.52 11.73-21 9 .49 4.2-5.95 3.59-6 7-3.9 1.74-1.34-2.82-3-3Z"/>
  <path fill="#576D86" stroke="None" d="M234 374c3.66 7.24 7.85 4.27 13 0 2.34 2.87 4.52 9.12 9 7 6.79 5.61-8.1 11.56-3.67 15.67 4.43 4.11 5.8 9.75 7.67 15.33-1.5-6.73-.98-15.29-2-22-1.02-6.7 5.99-14.07-1.78-18.22-7.77-4.15-10.7 4.52-17.22 4.22-.78-6.55-4.44-12.15-6-19-.47 5.09-1.95 11.16 1 17Z"/>
  <path fill="#6899A0" stroke="None" d="M160 367c1.99-1.99 11.85 4.91 11 7 1.31-.54 2.44-1.41 4-1 .11 1.51-.39 3.13 1 4-.46-.68.37-2.25 0-3 4.3-.44 7.46 3.22 12 2-.77 2.71-3.89 1.86-6 2 13.63 2.51 11.38-12.81 3.08-18.08-8.3-5.26-21.08-.92-25.08 7.08m8 1c-.96-7.24 15.9-11.72 19.25-2.25 3.35 9.47-13.67 3.24-19.25 2.25Z"/>
  <path fill="#6A8DA4" stroke="None" d="M113 363c0-.5.02-2 0-2-3.56 2.57-1.38 7.49-1 11 1.79-2.02 1-6.16 1-9Z"/>
  <path fill="#4A5D84" stroke="None" d="M168 368c5.58.99 22.6 7.22 19.25-2.25-3.35-9.47-20.21-4.99-19.25 2.25m17 2c-4.24-1.49-11.93-.32-13-6 5.18-2.44 13.26-1.03 13 6Z"/>
  <path fill="#595D7C" stroke="None" d="M238 385c4 3.04 12.9 6.39 10 15-2.91 8.62 10.12 10.96 12 16v-3s.16-.56 0-1c-1.87-5.58-3.24-11.22-7.67-15.33-4.43-4.11 10.46-10.06 3.67-15.67-4.48 2.12-6.66-4.13-9-7-5.15 4.27-9.34 7.24-13 0-1.53-.25-2.18-2.55-4-2-.53-3.18 1.13-7.57-1-10v11c4.94 1.9 5.74 8.33 9 12Z"/>
  <path fill="#79BBA0" stroke="None" d="M482 389c-2.55 3.95-1.08 8.8-7 9 1.72 2.27.73 5.34 1 8 1.76-1.48 4.21-1.17 6 0-1.54-1.04-1.98-3.6-3-5 4.63-3.49 9.83-9.21 14-14 .16-.72-2.41-8.06-.65-11.31 1.77-3.25-.04-10.47-.35-13.69 0 10.85-1.91 19.59-10 27Z"/>
  <path fill="#3F3F7C" stroke="None" d="M185 370c.26-7.03-7.82-8.44-13-6 1.07 5.68 8.76 4.51 13 6Z"/>
  <path fill="#72B7A5" stroke="None" d="M160 367c-3.25 6.5 4.43 10.14 10 10 .03-.2.91-.65 1-1 .12-.47-.17-1.57 0-2 .85-2.09-9.01-8.99-11-7Z"/>
  <path fill="#8A7FA7" stroke="None" d="M548 366c-5.54-1.89-8.79 6.79-3 9 5.79 2.2 7.91-7.32 3-9m0 6c-8.51 1.41.45-8.53 0 0Z"/>
  <path fill="#DEA9BE" stroke="None" d="M548 372c.45-8.53-8.51 1.41 0 0Z"/>
  <path fill="#69A393" stroke="None" d="M493 387c-4.17 4.79-9.37 10.51-14 14 1.02 1.4 1.46 3.96 3 5 .43.17 1.67.24 2 0 .84-.62 1.76-1.74 3-2 1.58 2.98 2.99 6.27-1 8 2.14-1.61 5.1-3.41 7-5-4.36 5.55.18 5.9 4 3 1.81-.33 3.49.14 5 1-3.61-3.83.06-9.6-1-15 4.39 3.6 18.41 10.26 18 1-2.82 1.56-8.58 4.71-8.97-2.03-.4-6.73 6.18-6.26 10.19-5.19 4.01 1.07 8.99 6.03 1.78 7.22.25.24.76.74 1 1 8.87 1.88.59-9.12 0-11-3.64 1.17-10.52.06-15 3 .93-4.01 4.43-7.1 4-11-1.32-1.64-3.48.44-5-2 1.69-2.32.72-5.3 1-8-3.4-.03-4.25 4.31-4 7-4.06-.93-8.38 3.3-5 6-1.82 1.87-4.03 3.1-6 5Z"/>
  <path fill="#6CAB9A" stroke="None" d="M129 374c-.52 4.24-.89 10.57 3 13v-3c-.19-.41.01-1.5 0-2-.04-1.56-.88-9.23-2-10-.03.25-.91 1.25-1 2Z"/>
  <path fill="#6FA88C" stroke="None" d="M265 393c-.79 2.47-1.34 4.77-3 7 6.47 4.82 15.13 8.55 23.22 10.78 8.1 2.23 14.86 11.41 23.78 8.22 2.1-.63-1.23-1.7 2 0-.43-.76-.27-6.8 1-7-9.34.29-20.94-6.39-26-14-8.77-3.61-20.81-6.44-14-19-1.57-.96-3.25-2.32-4-4-1.84-1.13-3.99-2.19-6-3 7.35 5.36 5.14 14.31 3 21Z"/>
  <path fill="#ADE7BD" stroke="None" d="M435 376c-6.54 6.84-22.84 3.04-30 6 1.5 1.63-1.57 4-1 3-2.18 7.08 1.37 15.41-4 21 2.58-1.66 6.28-2.86 5-7 .44 5.08 3.26 4.42 8 5 1.98-6.28.51-.91 3 0 3.7-11.94 20.17-9.38 29-16 2.7-1.7 2.77-4.04 2-7 7.16 2.45 13.13-4.26 19-7-6.77-2.78-13.42 2.67-21-2-1.32 2.13-9.56 12.01-10 4Z"/>
  <path fill="#392853" stroke="None" d="M597 404c-2 2.28-4.64 4.12-7 6-4.93 5.28-.29 12.54-3.99 18.01-3.71 5.47-6.21 11.74-8.01 16.99-.04 2.52-1.88 5.18-1 8 1.95-4.35 7.46-1.79 11-2 2.87-5.95 5.41-9.8 10.25-14.75 4.84-4.96.99-14.84 7.5-18.5 6.5-3.66 4.92-13.54 8.25-17.75-.2-2.54 3.06-3.06 5-3-1.55-10.18 7.37-15.59 12-23-.75-.54-2.45-1.21-3-2 5.04 5.79-5.38 7.89-7.25 12.75-1.86 4.87-3.26 13.08-10.75 13.25 1.99 5.35-3.05 5.36-4 9-2.75-1.65-6.66-1.08-9-3Z"/>
  <path fill="#53807C" stroke="None" d="M132 384v3c-3.89-2.43-3.52-8.76-3-13-2.35 5.48-1.85 15.86 5 18 .75-3.09-.91-5.73-2-8Z"/>
  <path fill="#7ABBA4" stroke="None" d="M176 377c1.68 1.05 4.11.65 6 1 2.11-.14 5.23.71 6-2-4.54 1.22-7.7-2.44-12-2 .37.75-.46 2.32 0 3Z"/>
  <path fill="#73AF9D" stroke="None" d="M196 388s-.17.57 0 1c3.87 5.18 9.4-1.66 10.22-6.78.82-5.12-3.27-10.02-10.14-6.14-6.87 3.89-2.32 7.35-.08 11.92Z"/>
  <path fill="#7AC59F" stroke="None" d="M286 398c8.3 3.42 16.44 8.75 26 9-6.64-2.27-3.7-3.21 2-2-3.64-4.14-5.76-8.47-13-8 .27-6.1-4.38-10.62-8-15-5.27-.3-7.63-8.03-11-3-.03-6.69-5.73-3.57-1 1-5.06-1.63-8.51-2.25-13-5 .75 1.68 2.43 3.04 4 4-6.81 12.56 5.23 15.39 14 19Z"/>
  <path fill="#997287" stroke="None" d="M372 402c.16.81 1.86 2.53 1 4 7.76.85 9.99-8.52 12-14-.03-1.15-.49-.63 0-2 .49-3.59.58-8.85-1-12-.36-.39-.67-1.74-1-2-8.4-3.59-11.26 10.82-7 16-4.22 1.64-3.32 6.52-4 10Z"/>
  <path fill="#E7D8E6" stroke="None" d="M383 376c.33.26.64 1.61 1 2 2.98 3.27 2.35 8.2 1 12-.49 1.37-.03.85 0 2 4.01-3.27 1.14-10.1 2-15-1.85-.7-3.28-.9-4-1Z"/>
  <path fill="#567683" stroke="None" d="M122 376s-.5-.05-1 0c-4.86 4.29 0 10.3 5 11 .32-4.13-.99-8.17-4-11m2 6c-8.76.93.21-9.56 0 0Z"/>
  <path fill="#484F76" stroke="None" d="M550 383c-3.24 2.05-6.43 3.16-6 8 .04.5 0 1 0 1 .08.16 1.8 1.16 2 1 .45-.72-.36-2.23 0-3 2.98-.42 3.66 3.2 2 5 1.4-1.9 2.69-4.71 5-7 1.11-1.1 2.75-2.14 4-3 .89-2.05-2.65-4.66 0-6 .42-1.15.78-1.78 1-3-.88 1.98-7.63 6.77-8 7Z"/>
  <path fill="#67AE97" stroke="None" d="M124 382c.21-9.56-8.76.93 0 0Z"/>
  <path fill="#4E4167" stroke="None" d="M204 402c.87 1.2 1.36 3.61 2 5 .32.69.67 1.34 1 2 1.19 2.37 2.33 2.45 4 4 1.63 1.51 3.52 2.61 4 5 3.89.35 3.4-4.3 5-6 .1-1.6-.66-4.43 2-4-.42 3.31 2.92 5.52 2 9 .76-3.12 1.17-5.91-1-9 6-.18 5.41-8.08 7-12 8.61-.71 19.14 2.89 13 13 8.85.6 13.26 11.82 20 14-1.73-1.59-3.08-3.62-3-6 .02-.5 0-1 0-1-1.88-5.04-14.91-7.38-12-16 2.9-8.61-6-11.96-10-15-3.1-2.35-5.9-3.92-8-5-3.01 5.87-3.9-7.99-8.89.11-4.99 8.09 1.44 17.61 2.89 24.89-5.57.65-11.3-4.06-16 0 1.86-3.56-3.1-7.61-4-3Z"/>
  <path fill="#6F5A6F" stroke="None" d="M385 390c1.35-3.8 1.98-8.73-1-12 1.58 3.15 1.49 8.41 1 12Z"/>
  <path fill="#3A2F5B" stroke="None" d="M553 388c-1.67 2.43-2.7 6.39-1 9-10.33 4.67-12.28 17.21-22 21 2.84 3.98 12.72-.08 14 8 7.14-3.49 11.12-11.1 18-14 .73 1.85-.28 6.02 3 4 1.92-4.33 5.36-5.31 6.97-10.03 1.61-4.73 8.11-4.1 9.35-8.65 1.24-4.54-2.43-9.72-.32-14.32-4.85-3.52-1.09 8.04-6 7-4.91-1.04-7.87 1.82-11 4 .98-4.6-.63-8.65-5-6 2.02-3.23-1.97-6.63-2-9-2.65 1.34.89 3.95 0 6-1.25.86-2.89 1.9-4 3Z"/>
  <path fill="#9ACD99" stroke="None" d="M314 405c6.4 2.25 10.81 6.93 17.07 8.93s10.01 7.5 16.62 9.38c6.61 1.87 16.55.83 20.31 4.69 3.13-2.92 1.85-7.99 4-11-.02-.5.24-1.7 0-2-1.43-1.78-2.74-3.02-2-6-6.27-3.07-5.96-7.01-14-5-.28 1.23-1.72 2.27-3 2-1.01-5.34-2.55-.73-4-5-4.06 3.49-13.42-2.02-21-1-3.86-7.89-17.82-7.06-26-7-.83-4.98-5.64-7.64-9-11 3.62 4.38 8.27 8.9 8 15 7.24-.47 9.36 3.86 13 8Z"/>
  <path fill="#564C6D" stroke="None" d="M565 416c-.5 1.13-.99 1.66-1 3 4.05-3.27 11.3-1.56 14.7-7.3 3.39-5.75 4.99-11.32 4.3-18.7-.25-2.63-.59-6.17-1-9-.25-.25-.71-.78-1-1-2.11 4.6 1.56 9.78.32 14.32-1.24 4.55-7.74 3.92-9.35 8.65-1.61 4.72-5.05 5.7-6.97 10.03Z"/>
  <path fill="#6E9B93" stroke="None" d="M140 391c.8 2.16 1.02 5.96 4 7v-3c-.17-1.4-1.71-2.6-2-4-.1-.48.13-1.53 0-2-.53-1.92-2.1-3.49-3-5 .34 1.76.02 4.35 1 7Z"/>
  <path fill="#638B84" stroke="None" d="M583 393c.2.24 1 0 1 0-.77-1.93-1.4-3.76-1-6 4.32-.01 7.58 4.07 10 7-3.16 4.27-3.3 9.94-7 14-1.79-3.55 1.22-9.42-2-13-.2 5.28 1.43 9.87-1 15 .04-.02 2.9-.08 4-1 3.34-4.63 4.07-10.79 10-13-.54-1.66-2.56-2.33-3-4-3.06-1.65-6.02-3.94-9-6-.9-.62-2.19-1.21-3-2 .41 2.83.75 6.37 1 9Z"/>
  <path fill="#4C4A6D" stroke="None" d="M585 386c2.98 2.06 5.94 4.35 9 6 2.09 1.13 4.92 1.73 6 4-8 3.07-9.16 12.62-16 17-.5 1.07-.83 2.76-1 4-.07.49 0 1 0 1 .25.25 1 0 1 0 .75-3.71 3.14-5.72 6-8 2.36-1.88 5-3.72 7-6 3.85-5.36 8.49-10.17 10-16-7.23 5.39-16 .29-22-2Z"/>
  <path fill="#507E6F" stroke="None" d="M147 390c-1.65 4.88-.08 3.07-3 5v3c-2.98-1.04-3.2-4.84-4-7 .47 3.95-1.14 3.67 1 7 5.29 5.94 15.35 11.68 23 14-4.41-1.88-8.53-5.81-13-8 .09-2.66 4.71-2.29 4-6-2.46.53-5.13-.58-6-3-.72-1.38-1.42-4.35-1-6 .11-.43 1.74-2.88 2-3-2.01.6-2.45 2.36-3 4Z"/>
  <path fill="#77A99E" stroke="None" d="M148 389c1.4-3.17 7.81-1.6 10-1-.23-.16 0-1 0-1 .54.43-2.58-1.18-2-1-1.03-.31-5.03-.43-6 0-.26.12-1.89 2.57-2 3Z"/>
  <path fill="#465F68" stroke="None" d="M158 387c7.27 3.03 8.15 7.06 16 6 1.87-.25 4.12-.11 6 0-3.86-.75-10.29-.06-14.25-1.75-3.97-1.69-5.05-4.83-9.75-5.25-.58-.18 2.54 1.43 2 1Z"/>
  <path fill="#71C186" stroke="None" d="M148 389c-.42 1.65.28 4.62 1 6 2.77 3.9 7.38.67 11 1 .25 4.71-2.31 6.79-7 7 10.79 9.33 25.21 11.29 39 13-.51-7.67 9.09.22 14-3 .17-.33 1-1.01 1-1-.38-.71.17-2.2 0-3-.33-.66-.68-1.31-1-2-1.81-.32-5.41 3.4-8.07 1.07-2.66-2.32-6.07-2.34-4.93-7.07 1.43-.88 3.6-1.01 2-3-3.67.26-4.46-.54-7-2-3.05-1.75-4.68-2.8-8-3-1.88-.11-4.13-.25-6 0-4.5 1.95.78 10.36-4 11-.43-3.28-1.48-6.47-1-10-5.83 2.04-7.13-3.59-11-6-2.19-.6-8.6-2.17-10 1Z"/>
  <path fill="#578675" stroke="None" d="M158 388c3.87 2.41 5.17 8.04 11 6-.48 3.53.57 6.72 1 10 4.78-.64-.5-9.05 4-11-7.85 1.06-8.73-2.97-16-6 0 0-.23.84 0 1Z"/>
  <path fill="#6AB691" stroke="None" d="M584 393c.17.43.02 1.5 0 2 3.22 3.58.21 9.45 2 13 3.7-4.06 3.84-9.73 7-14-2.42-2.93-5.68-7.01-10-7-.4 2.24.23 4.07 1 6Z"/>
  <path fill="#98CB95" stroke="None" d="M400 406c-2.54 1.64-6.61 5.73-9 2 .2.24.81 2.5 1 3 1.75 4.58-.1 9.28.99 14.01 1.1 4.72 3.91 11.03 9.26 8.79 5.34-2.24 10.21-2.12 15.77-2.78 5.57-.65 12.23-2.86 17.67-1.67 5.45 1.2 8.27-4.14 13.06-2.95 4.8 1.18 8.73-4.8 13.28-4.37 4.54.43 10.66-5.24 12.74-7.26 2.08-2.02 13.01-7.03 9.23-8.77-.33.24-1.57.17-2 0-1.79-1.17-4.24-1.48-6 0-.27-2.66.72-5.73-1-8 5.92-.2 4.45-5.05 7-9-3.04 4.16-6.99 2.08-10 0 .23 4.88-4.9 3.81-8 5-.16-7.19-12.52-2.54-19-4 .69-.83 2.94-2.47 0-2-8.83 6.62-25.3 4.06-29 16-2.49-.91-1.02-6.28-3 0-4.74-.58-7.56.08-8-5 1.28 4.14-2.42 5.34-5 7Z"/>
  <path fill="#52365D" stroke="None" d="M548 395c-3.25 4.42-11.35 12.89-17 13-.5.01-1 0-1 0-4.75 1.77-6.56 7.87-13 8-.5.01-1 0-1 0-2.71 2.1.24 5.04-3 8 8.93 10.05 24.2 10.86 38 9 2.44-6.42 11.23-6.29 13-13v-1c.01-1.34.5-1.87 1-3-3.28 2.02-2.27-2.15-3-4-6.88 2.9-10.86 10.51-18 14-1.28-8.08-11.16-4.02-14-8 9.72-3.79 11.67-16.33 22-21-1.7-2.61-.67-6.57 1-9-2.31 2.29-3.6 5.1-5 7m-12 31c-1.41-8.51 8.53.45 0 0Z"/>
  <path fill="#88C09E" stroke="None" d="M519 397c.98-.54 1.71-1.21 3 0 7.21-1.19 2.23-6.15-1.78-7.22-4.01-1.07-10.59-1.54-10.19 5.19.39 6.74 6.15 3.59 8.97 2.03Z"/>
  <path fill="#48696B" stroke="None" d="M142 391c.29 1.4 1.83 2.6 2 4 2.92-1.93 1.35-.12 3-5-.8.71-4.14 2.16-5 1Z"/>
  <path fill="#7FA29A" stroke="None" d="M542 392c-.36 1.59.27 3.39 0 5 2.92.52 1.73-3.33 2-5 0 0 .04-.5 0-1-1.46-1.94-1.66.5-2 1Z"/>
  <path fill="#62687B" stroke="None" d="M546 393c-1.54 2.45-2.29 8.14-6 4 .66 3.78-2.66 6.76-5 9-1.41.86-2.74.7-4 2 5.65-.11 13.75-8.58 17-13 1.66-1.8.98-5.42-2-5-.36.77.45 2.28 0 3Z"/>
  <path fill="#938384" stroke="None" d="M372 402c-.27 1.4-1.11 2.91-1 5 1.33-.33 4.53 1.84 6 2 2.55-5.49 10.83-.38 13-6-.82-3.83-.91-8.94-5-11-2.01 5.48-4.24 14.85-12 14 .86-1.47-.84-3.19-1-4Z"/>
  <path fill="#5B717A" stroke="None" d="M528 397c-.76.55-1.6 4.1-4 3 .91.23 3.28 1.15 4 2-2.35 2.82-8.61 2.02-5-2-1.88-1.33-3.87 1.81-6 3 3.02.22 4.72 2.44 8 3 1.54-1.98 3.26-4.91 6-5 1.65-.17 3.35.13 5 0 .23 1.83-.07 3.47-1 5 2.34-2.24 5.66-5.22 5-9 3.71 4.14 4.46-1.55 6-4-.2.16-1.92-.84-2-1-.27 1.67.92 5.52-2 5 .27-1.61-.36-3.41 0-5-2.12 2.27-2.33 6.55-4 9 2.4-8.01-6.39-6.6-10-4Z"/>
  <path fill="#586877" stroke="None" d="M587 409c-.96 1.32-2.33 2.55-3 4 6.84-4.38 8-13.93 16-17-1.08-2.27-3.91-2.87-6-4 .44 1.67 2.46 2.34 3 4-5.93 2.21-6.66 8.37-10 13Z"/>
  <path fill="#6F907C" stroke="None" d="M261 413c.08.49 0 1 0 1 9.64 1.14 19.94 6.14 28 11 2.15.44 3.42-5.2 5-1-.16.06 0 1 0 1 1.48 4.02 7.22 2.31 9 6 1.74-2.36 3.55-4.51 5-7 2.44.09 4.15 7.45 5 3-2.4-1.52-4.24-5.68-4-8-8.92 3.19-15.68-5.99-23.78-8.22-8.09-2.23-16.75-5.96-23.22-10.78 1.66-2.23 2.21-4.53 3-7-1.83 2.89-5.33 3.64-5 8 .33 4.36.32 7.9 1 12Z"/>
  <path fill="#635E6A" stroke="None" d="M564 419v1c0 10.18-1.25 7.8-8 12 .05-.15 1 0 1 0h3c1.41 0 3.67-.44 5 0-2.74-9.97 2.96-16.85 11-9-1.49-4.88 3.85-9.54 7-13 2.43-5.13.8-9.72 1-15 .02-.5.17-1.57 0-2 0 0-.8.24-1 0 .69 7.38-.91 12.95-4.3 18.7-3.4 5.74-10.65 4.03-14.7 7.3Z"/>
  <path fill="#68A277" stroke="None" d="M164 412c2.58.78 5.32 1.47 8 2 10.55 2.07 21.63 5 32 6 1.99 0 4.01-.08 6 0 1.47.76-8.39-3.98-12-5 1.66-1.88 6.84 2.23 8-2-4.91 3.22-14.51-4.67-14 3-13.79-1.71-28.21-3.67-39-13 4.69-.21 7.25-2.29 7-7-3.62-.33-8.23 2.9-11-1 .87 2.42 3.54 3.53 6 3 .71 3.71-3.91 3.34-4 6 4.47 2.19 8.59 6.12 13 8Z"/>
  <path fill="#617B76" stroke="None" d="M195 398c.5-.03 1.5 0 2 0-2.49-.84-6.26-.99-9-2 2.54 1.46 3.33 2.26 7 2Z"/>
  <path fill="#653E63" stroke="None" d="M224 417c0 .77-.28 2.29 0 3 .89 2.27 3.31 2.64 0 4-5.69 2.34-17.96-.41-24-1 3.09.66 7.43 1.72 11 2 13.23 1.05 22.83 7.53 35 12 .08-6.17-10.14-3.61-13-10 .81 1.51 2.35 2.45 3 4-2.17-1.36-11.82-5.09-7-7 .41-.24 2.54-1.63 3-1-2.85-4.37-7.03-8.28-5-15 5.36-2.36 7.87 3.49 13 4-.64 4.89 4.4 8.05 9 8-.21 9.21 9.46 8.31 15 12 7.62 2.74 17.88 9.27 25 5-.14-2.58-7.38-1.38-9.08-3.92-1.69-2.55-6.22-2.48-8.93-4.07-2.7-1.6-5.11-4.51-7.99-6.01-6.74-2.18-11.15-13.4-20-14 6.14-10.11-4.39-13.71-13-13-1.59 3.92-1 11.82-7 12 2.17 3.09 1.76 5.88 1 9m12-16c.45-.15 1.52-.11 2 0 3.35.76 2.21 4.83-1.03 4.97-3.23.14-4-3.99-.97-4.97Z"/>
  <path fill="#68867C" stroke="None" d="M497 410c1.96 4.36.04 7.4-5 7-.24 10.41 11.42-1.03 10-6 6.36 7.58 10.74-9.06 17-5 1.28.28 3.5-.76 4 1-3.63 2.42-4.9 7.69-10 9h3s.5.01 1 0c.26-.12.7-.79 1-1 1.68-2.16 4.33-6.08 7-7 .45-.15 1.5 0 2 0 .11-1.14 1.69-6.33 4-7-2.74.09-4.46 3.02-6 5-3.28-.56-4.98-2.78-8-3 2.13-1.19 4.12-4.33 6-3 .33.24 1 0 1 0 .21-.19-.86-1.85-1-2-.24-.26-.75-.76-1-1-1.29-1.21-2.02-.54-3 0 .41 9.26-13.61 2.6-18-1 1.06 5.4-2.61 11.17 1 15-1.51-.86-3.19-1.33-5-1m6-1c8.04-4.99 5.16 7.63 0 0Z"/>
  <path fill="#486C6D" stroke="None" d="M172 415c-.23-.34 0-1 0-1a85.01 85.01 0 0 1-8-2c-7.65-2.32-17.71-8.06-23-14 5.33 8.28 21.32 17.37 31 17Z"/>
  <path fill="#71987F" stroke="None" d="M206 407c-.64-1.39-1.13-3.8-2-5-1.42-1.97-4.59-4-7-4-.5 0-1.5-.03-2 0 1.6 1.99-.57 2.12-2 3-1.14 4.73 2.27 4.75 4.93 7.07 2.66 2.33 6.26-1.39 8.07-1.07m-5-1c-1.72-1.7-5.29-.03-6-3 2.24-2.34 6.2.09 6 3Z"/>
  <path fill="#86B284" stroke="None" d="M311 419c18.47 9.72 43.26 15.76 65 17 3.98-4.96-3.37-8.03-7-5 1.04-4.63 3.34-8.97 3-14-2.15 3.01-.87 8.08-4 11-3.76-3.86-13.7-2.82-20.31-4.69-6.61-1.88-10.36-7.38-16.62-9.38-6.26-2-10.67-6.68-17.07-8.93-5.7-1.21-8.64-.27-2 2-9.56-.25-17.7-5.58-26-9 5.06 7.61 16.66 14.29 26 14-1.27.2-1.43 6.24-1 7Z"/>
  <path fill="#2F173B" stroke="None" d="M614 400c-3.33 4.21-1.75 14.09-8.25 17.75-6.51 3.66-2.66 13.54-7.5 18.5-4.84 4.95-7.38 8.8-10.25 14.75-3.54.21-9.05-2.35-11 2-.88-2.82.96-5.48 1-8 .01-1 .39-2.73-1-3-.38 4.58-3.8 10.42-9 10 2.07 1.17 1.3 2.71 2 5-5.42-2.27-9.88 5.73-16 4-.21 9.06-10.38 8.44-16 5-.29 2.53-1.05 4.03 1 6-3.46.56-4.78 2.2-8 0-1.41 3.98-15.06 9.61-13 2-6.62 5.01-14.55-.58-23.07.07-8.53.66-18.36-7.35-26.93-5.07-8.57 2.28-19.82-2.17-25 5-15.16-6.2-32.5-2.65-49.67.33-17.18 2.97-37.87 2.48-55.33.67s-29.16-4.88-43.07-11.93c-13.92-7.04-27.67-12.5-41.93-18.07-14.26-5.57-26.17-17.17-42-19 0 0-.5.01-1 0 .89 4.16 13.48 2.94 16.23 6.77 2.75 3.84 11.27 7.87 5.77 13.23 6.38 5.68 17.49 2.37 24.03 7.98 6.53 5.6 16.85 4.55 19.97 12.02 2.65-.78 4.73 1.94 7 0 4.41 4.69 8.52 9.2 16.03 10.97 7.51 1.78 14.4 3.86 22.04 5.96 7.65 2.09 15.93-.58 23.93 2.07 8.01 2.64 17.61-.41 26 0s17.78-.88 25.25-2.75c7.46-1.88 13.76-2.7 21.42-4.58 7.66-1.88 16.17 1.07 24.35.31 8.19-.77 12.9 7.27 20.98 7.02 8.08-.26 18.19 1.08 26 2 7.81.92 18.7-1.38 24 0 .28-1.28-.76-3.5 1-4 .26-2.03.4-4.71 2-6-.96 10.22 2.13 24.93 15 27v-4c1.37-5.79-2.63-12.06 0-17 2.71 7.68 1.02 19.25 12 21 1.38-4.26 3.97-8.01 6-12-1.02-.56-2.45-.99-3-2 16.16-2.28-2.91-14.26-6-21 13.72 4.34 17.1 20.85 29 26 3.17-10.89-3.38-23.59 2-34 .41 7.6.12 17.69 2 26 11.6-4.44 10.12-19.77 15-29 1.36-3.58 2.25-7.25 3-11 1.89.22 3.96-.56 5-2 2.74-7.43 5.52-17.64 15-18 6.85-8.62 7.71-18.22 9-29-1.39 1.7-4.69.99-6 2m-69 91c-5.98 7.62-7.8-5.76 0 0Z"/>
  <path fill="#636276" stroke="None" d="M524 400s-.67.24-1 0c-3.61 4.02 2.65 4.82 5 2-.72-.85-3.09-1.77-4-2Z"/>
  <path fill="#AF4E83" stroke="None" d="M238 401c5.32 4.31-7.29 4.29-2 0-3.03.98-2.26 5.11.97 4.97 3.24-.14 4.38-4.21 1.03-4.97Z"/>
  <path fill="#E9869D" stroke="None" d="M238 401c-.48-.11-1.55-.15-2 0-5.29 4.29 7.32 4.31 2 0Z"/>
  <path fill="#8EB695" stroke="None" d="M527 408h3s.5.01 1 0c1.26-1.3 2.59-1.14 4-2 .93-1.53 1.23-3.17 1-5-1.65.13-3.35-.17-5 0-2.31.67-3.89 5.86-4 7Z"/>
  <path fill="#667674" stroke="None" d="M201 406c.2-2.91-3.76-5.34-6-3 .71 2.97 4.28 1.3 6 3Z"/>
  <path fill="#91897E" stroke="None" d="M371 407c.03.5.23 1.84 0 2 3.47 7.74 10.46.01 16 2 1.46-1.28 1.71-4.86 4-3-.83-1.29-.69-3.54-1-5-2.17 5.62-10.45.51-13 6-1.47-.16-4.67-2.33-6-2Z"/>
  <path fill="#879F76" stroke="None" d="M484 406c3.78 1.74-7.15 6.75-9.23 8.77-2.08 2.02-8.2 7.69-12.74 7.26-4.55-.43-8.48 5.55-13.28 4.37-4.79-1.19-7.61 4.15-13.06 2.95-5.44-1.19-12.1 1.02-17.67 1.67-5.56.66-10.43.54-15.77 2.78-5.35 2.24-8.16-4.07-9.26-8.79-1.09-4.73.76-9.43-.99-14.01.17 3.69-4.73 5.62-6 9-2.67.11-1.85-3.92-5-4-2.06-.06-2.79 2.2-4 4 .11-4.61-2.14-5.69-5-5 .24.3-.02 1.5 0 2 .34 5.03-1.96 9.37-3 14 3.63-3.03 10.98.04 7 5-21.74-1.24-46.53-7.28-65-17-3.23-1.7.1-.63-2 0-.24 2.32 1.6 6.48 4 8 2.4.27 4.95 1.46 8 1 4.62 7.68 15.06 7.14 24.08 10.92 9.01 3.79 20.55 3.95 30.92 4.08 10.37.13 24.54.51 35 0s20.57-2.47 30.22-4.78c9.66-2.31 17.96-4.68 26.78-8.22 6.92-3.9 12.67-12.29 18-18 3.99-1.73 2.58-5.02 1-8-1.24.26-2.16 1.38-3 2Z"/>
  <path fill="#769379" stroke="None" d="M497 410c-3.82 2.9-8.36 2.55-4-3-1.9 1.59-4.86 3.39-7 5-5.33 5.71-11.08 14.1-18 18 4.95-.66 11.12-2.62 15-4 5.3-1.88 2.89-1.12 3 4 9.23-.89 13.86-16.42 24-12 .95-.65 1.28-1.31 2-2-6.86-1.73 4.49-9.56 7-10-6.26-4.06-10.64 12.58-17 5 1.42 4.97-10.24 16.41-10 6 5.04.4 6.96-2.64 5-7Z"/>
  <path fill="#91C18D" stroke="None" d="M512 416c.26-.25 1 0 1 0 5.1-1.31 6.37-6.58 10-9-.5-1.76-2.72-.72-4-1-2.51.44-13.86 8.27-7 10Z"/>
  <path fill="#4E254A" stroke="None" d="M232 423c.23.35-.23 1.84 0 2 1.11.77.42.92 1 2 2.86 6.39 13.08 3.83 13 10-12.17-4.47-21.77-10.95-35-12 0 0 .25.75 0 1 15.83 1.83 27.74 13.43 42 19 14.26 5.57 28.01 11.03 41.93 18.07 13.91 7.05 25.61 10.12 43.07 11.93 17.46 1.81 38.15 2.3 55.33-.67 17.17-2.98 34.51-6.53 49.67-.33 5.18-7.17 16.43-2.72 25-5s18.4 5.73 26.93 5.07c8.52-.65 16.45 4.94 23.07-.07-2.06 7.61 11.59 1.98 13-2 3.22 2.2 4.54.56 8 0-2.05-1.97-1.29-3.47-1-6 5.62 3.44 15.79 4.06 16-5 6.12 1.73 10.58-6.27 16-4-.7-2.29.07-3.83-2-5 5.2.42 8.62-5.42 9-10 1.39.27 1.01 2 1 3 1.8-5.25 4.3-11.52 8.01-16.99 3.7-5.47-.94-12.73 3.99-18.01-2.86 2.28-5.25 4.29-6 8 1.13 6.23-2.93 11.3-4 17-3.23-.74-3.62-.66-5 2-4.5 5.19-12.08 7.18-18.75 9.25-6.66 2.08-8.68 10.11-17.25 9.75-.62 4.13-3.25 5.61-6 2 2.2 10.28-10.92 4.12-18.07 7.07-7.16 2.95-16.19 1.44-23.01-1.99-6.82-3.43-12.78-5.5-19.17-6.28-6.38-.77-18.29 6.74-25.75 5.2-7.46-1.54-17.01 12.5-22 2-13.94 2.88-28.49 2.17-43 3-14.51.83-28.78-2.51-42-5-13.23-2.49-25.82-3.9-37.25-7.8S276.86 448.92 274 436c-3.56-.7-6.99-2.7-10-4-5.54-3.69-15.21-2.79-15-12-4.6.05-9.64-3.11-9-8-5.13-.51-7.64-6.36-13-4-2.03 6.72 2.15 10.63 5 15Z"/>
  <path fill="#89927C" stroke="None" d="M371 409s-.6.2-1 0c-.74 2.98.57 4.22 2 6 2.86-.69 5.11.39 5 5 1.21-1.8 1.94-4.06 4-4 3.15.08 2.33 4.11 5 4 1.27-3.38 6.17-5.31 6-9-.19-.5-.8-2.76-1-3-2.29-1.86-2.54 1.72-4 3-5.54-1.99-12.53 5.74-16-2Z"/>
  <path fill="#8AAC86" stroke="None" d="M220 412c-.08 1.31.18 2.7 0 4 .08 1.32 2.21 7.76 4 4-.28-.71 0-2.23 0-3 .92-3.48-2.42-5.69-2-9-2.66-.43-1.9 2.4-2 4Z"/>
  <path fill="#66747A" stroke="None" d="M503 409c5.16 7.63 8.04-4.99 0 0Z"/>
  <path fill="#747375" stroke="None" d="M518 415c3.73-2.63 4.78-3.38 7-7-2.67.92-5.32 4.84-7 7Z"/>
  <path fill="#6A5969" stroke="None" d="M518 415c-.3.21-.74.88-1 1 6.44-.13 8.25-6.23 13-8h-3c-.5 0-1.55-.15-2 0-2.22 3.62-3.27 4.37-7 7Z"/>
  <path fill="#666F66" stroke="None" d="M207 412c3.87 1.87 5.06 5.04 7 9-1.28-.28-3.5.76-4-1-1.99-.08-4.01 0-6 0-3.94 0-8.08-.36-12 0 .22.13 0 1 0 1s.5.05 1 0c7.51-.71 15.68 3.16 23 0-1.47-2.47-3.49-5-5-8-1.67-1.55-2.81-1.63-4-4 .17.8-.38 2.29 0 3Z"/>
  <path fill="#717970" stroke="None" d="M583 410c-3.15 3.46-8.49 8.12-7 13-8.04-7.85-13.74-.97-11 9 .3.1-.24 2.72 0 3 7.54-1.12 13.13-7.47 16-14 .29-1.09-.16-4.1 2-4 .17-1.24.5-2.93 1-4 .67-1.45 2.04-2.68 3-4-1.1.92-3.96.98-4 1m-17 22c-.59-.94-.61-10.09 0-11 2.67-3.98 7.2 3.09 10 3-1.24 3.46-6.5 9.83-10 8Z"/>
  <path fill="#6C876C" stroke="None" d="M206 413c-1.16 4.23-6.34.12-8 2 3.61 1.02 13.47 5.76 12 5 .5 1.76 2.72.72 4 1-1.94-3.96-3.13-7.13-7-9 0-.01-.83.67-1 1Z"/>
  <path fill="#615761" stroke="None" d="M211 413c1.51 3 3.53 5.53 5 8-7.32 3.16-15.49-.71-23 0 1.48 1.09 5.29 1.63 7 2 6.04.59 18.31 3.34 24 1-.88.15-3.46-2.67-5-2 .47-1.88-1.06-4.93 1-6 .18-1.3-.08-2.69 0-4-1.6 1.7-1.11 6.35-5 6-.48-2.39-2.37-3.49-4-5Z"/>
  <path fill="#73726D" stroke="None" d="M260 416s.02.5 0 1c10.03 7.01 18.32 14.06 30 16 1.79-1.29.54-4.99 3-6-.22 7.8 6.04 7.45 12 11 1.69-2.34.44-10.1 5-8-.62-1.01.4-4-2-4-.74 3.2-3.64 5.41-3 9-5.37-.44-10.01-4.56-11-10 0 0-.16-.94 0-1-2.48.88-2.61 4.16-4 6-9.32-5.59-23.17-6.73-29-16 0 0 .08-.51 0-1 0 0-.75.25-1 0v3Z"/>
  <path fill="#60876F" stroke="None" d="M172 415c.5-.02 1.53-.11 2 0 6.21 1.44 12.35 1.62 18 5 3.92-.36 8.06 0 12 0-10.37-1-21.45-3.93-32-6 0 0-.23.66 0 1Z"/>
  <path fill="#6F7D72" stroke="None" d="M294 424c-1.58-4.2-2.85 1.44-5 1-8.06-4.86-18.36-9.86-28-11 5.83 9.27 19.68 10.41 29 16 1.39-1.84 1.52-5.12 4-6Z"/>
  <path fill="#476166" stroke="None" d="M185 419c2.31.5 4.75 1.21 7 2 0 0 .22-.87 0-1-5.65-3.38-11.79-3.56-18-5 2.98 2.02 7.67 2.78 11 4Z"/>
  <path fill="#787D70" stroke="None" d="M224 424c3.31-1.36.89-1.73 0-4-1.79 3.76-3.92-2.68-4-4-2.06 1.07-.53 4.12-1 6 1.54-.67 4.12 2.15 5 2Z"/>
  <path fill="#6E485A" stroke="None" d="M510 418c-2.81 1.92-7.6 1.81-9.75 5.25-2.16 3.43-3.87 6.55-6.25 8.75-5.15 4.76-11.95 6.36-18.22 9.78-6.27 3.41-15.76 3.02-21.78 6.22-6.02 3.2-17.13-.41-21 5 5.4-3.46 15.78.82 22.22-3.78 6.45-4.6 18.02-.1 24.78-4.22.41-6.04 7.2-7.26 12-8-7.78 22.1 27.13 36.18 39 19 7.01-.71 14.95-3.26 20.75-9.25 5.8-5.98 15.86-5.89 23.25-9.75 1.38-2.66 1.77-2.74 5-2 1.07-5.7 5.13-10.77 4-17 0 0-.75.25-1 0-4.2 7.34-3.89 16.83-14 20-4.65 3.75-14.98.85-18.75 8.25-3.77 7.39-14.05 3.21-19.33 8.67-5.27 5.47-13.28 7.8-20.92 7.08-.63-6.76-8.62-4.82-9-13-.37-8.19 2.65-9.53 8.75-11.59 6.1-2.06 9.35 2.83 16.25 2.59 1.71-.34 2.1-.49 3-2-.2-.96.16-2.03 0-3 6.21-.64 9.24 5.62 15 7 3.09-5.79 9.46-3.58 12-10 6.75-4.2 8-1.82 8-12-1.77 6.71-10.56 6.58-13 13-13.8 1.86-29.07 1.05-38-9 3.24-2.96.29-5.9 3-8h-3s-.74-.25-1 0c-.72.69-1.05 1.35-2 2Z"/>
  <path fill="#77646A" stroke="None" d="M263 423c2.88 1.5 5.29 4.41 7.99 6.01 2.71 1.59 7.24 1.52 8.93 4.07 1.7 2.54 8.94 1.34 9.08 3.92 2.03-1.22 2.59-1.98 4-2 7.28-.08 11.06 8.71 17 1 .17 8.58 11.22 3.53 16 8-.69-.99-3.03-4.64-4-5-3.7-1.11-5.12.42-9.07-.93-3.96-1.35-1.37-5.98-2.93-8.07-4.56-2.1-3.31 5.66-5 8-5.96-3.55-12.22-3.2-12-11-2.46 1.01-1.21 4.71-3 6-11.68-1.94-19.97-8.99-30-16-.08 2.38 1.27 4.41 3 6Z"/>
  <path fill="#817E67" stroke="None" d="M483 426c-8.02 4.39-15.45 9.15-25.07 10.93-9.62 1.77-18.77 6.95-28.93 7.07-10.16.12-24.02 1.9-34 2-9.98.1-25.09 3.71-34.02.02-8.94-3.68-19.86-2.01-27.73-6.41-7.88-4.41-18.72-2.25-23.25-9.61 1.56 2.09-1.03 6.72 2.93 8.07 3.95 1.35 5.37-.18 9.07.93 1.7.51 3.15 2.65 4 4 9.51-1.25 22.57 3.09 34 4 11.43.91 25.07 4.77 37 3 11.93-1.77 27.52-1.18 38.67-4.33 11.15-3.14 21.04-6.96 31.55-10.45 10.52-3.48 20.18-.45 28.78-10.22 3.6-3.64 8.29-8.06 14-7-10.14-4.42-14.77 11.11-24 12-.11-5.12 2.3-5.88-3-4Z"/>
  <path fill="#675A65" stroke="None" d="M581 421c-2.29 8.52-7.38 9.66-12 16-.24.33 0 1 0 1 10.11-3.17 9.8-12.66 14-20 0 0-.07-.51 0-1-2.16-.1-1.71 2.91-2 4Z"/>
  <path fill="#73656C" stroke="None" d="M496 425c-2.5 2.52-4.97 7.77-8 9 1.53-.27 4.75-1.14 6-2 2.38-2.2 4.09-5.32 6.25-8.75 2.15-3.44 6.94-3.33 9.75-5.25-5.71-1.06-10.4 3.36-14 7Z"/>
  <path fill="#728D6C" stroke="None" d="M566 421c2.56.38 4.92 1.42 7 3-2.34 2.69-4.51 5.76-7 8 3.5 1.83 8.76-4.54 10-8-2.8.09-7.33-6.98-10-3Z"/>
  <path fill="#1D0F36" stroke="None" d="M182 424c1.19-.15 2.51.59 2 2-4.18 1.15-6.95 4.49-11 6-7.51 2.81-13.09 12.61-17 20 2.99 3.11 6.4 6.2 10 9-1.08-4.49 2.39-7.39 4-11 1.6 1.75-.96 5.3 0 8 .03.5.19 1.59 0 2 2.75 7.79 9-3.03 8.33-9.67-.67-6.64 2.39-17.9 7.67-20.33 2.1 6.87-5.13 13.65-4 20s-7.67 14.45 0 16c-.31-5.42-.45-11.51 4-15 1.9 4.01-4.18 21.91 4.03 20.97 8.21-.94 3.87-9.98.05-15.05-3.82-5.07 11.19-10.57 9.92-15.92 7.93 6.83-10.05 11.41-5.67 17.67 4.38 6.26-.9 14.79 3.67 18.33.56-1.02.99-2.45 2-3-.99 12 6.03 13.65 6.67 3.67.64-9.98 3.58-12.83 11.33-15.67-.99 3.32-4.06 6.44-7 8 .53 3.82-.28 7.52-1 11-1.5 7.26 3.86 13.45 10.25 17.75 6.39 4.29 20.42-.45 27.75 2.25-.99 4.77 5.3 2.45 8 3 1.62 6.39 12.7 1 18.02 3.98 5.33 2.97 11.83-2.62 13.98 4.02 13-1.28 23.77 1.71 36 2-8.69-5.96 8.65-4.03 16-4 7.35.03 14.03 3.79 21.25 3.8 7.21.01 14.63 4.12 23.75 2.2s17.89 2.45 26 3c8.11.55 17.02 1.93 26 1 8.98-.93 15.76.56 25-1s17.7 2.41 26.02 1.02c8.33-1.38 17.26-1.17 24.98-4.02.04-5.22.5-2.81 2 0 .39-4.84-1.74-9.05-1-14 0-1.99-.09-4.01 0-6-.32-3.88-.59-8.38 0-13-1.76.5-.72 2.72-1 4-5.3-1.38-16.19.92-24 0-7.81-.92-17.92-2.26-26-2-8.08.25-12.79-7.79-20.98-7.02-8.18.76-16.69-2.19-24.35-.31s-13.96 2.7-21.42 4.58c-7.47 1.87-16.86 3.16-25.25 2.75-8.39-.41-17.99 2.64-26 0-8-2.65-16.28.02-23.93-2.07-7.64-2.1-14.53-4.18-22.04-5.96-7.51-1.77-11.62-6.28-16.03-10.97-2.27 1.94-4.35-.78-7 0-3.12-7.47-13.44-6.42-19.97-12.02-6.54-5.61-17.65-2.3-24.03-7.98 5.5-5.36-3.02-9.39-5.77-13.23-2.75-3.83-15.34-2.61-16.23-6.77-7.24-2.42-18.53.73-23-5-2.21-1.08-3.82 2.77-5 3Z"/>
  <path fill="#7EB17B" stroke="None" d="M566 432c2.49-2.24 4.66-5.31 7-8-2.08-1.58-4.44-2.62-7-3-.61.91-.59 10.06 0 11Z"/>
  <path fill="#706963" stroke="None" d="M565 432c-1.33-.44-3.59 0-5 0 1.35.83 2.94 2.78 4 4-2.79.52-8.93.06-6-4h-1c-1.41 1.68-.9 3.96-1 6 4.15-.95 8.54-1.23 13-1 4.62-6.34 9.71-7.48 12-16-2.87 6.53-8.46 12.88-16 14-.24-.28.3-2.9 0-3Z"/>
  <path fill="#A84D8B" stroke="None" d="M536 426c8.53.45-1.41-8.51 0 0Z"/>
  <path fill="#8D8A77" stroke="None" d="M229 424c-.83 1.59 2.08 4.56 3 1-.23-.16.23-1.65 0-2-.46-.63-2.59.76-3 1Z"/>
  <path fill="#7B6268" stroke="None" d="M233 427c-.58-1.08.11-1.23-1-2-.92 3.56-3.83.59-3-1-4.82 1.91 4.83 5.64 7 7-.65-1.55-2.19-2.49-3-4Z"/>
  <path fill="#80896B" stroke="None" d="M294 425c.99 5.44 5.63 9.56 11 10-.64-3.59 2.26-5.8 3-9 2.4 0 1.38 2.99 2 4 4.53 7.36 15.37 5.2 23.25 9.61 7.87 4.4 18.79 2.73 27.73 6.41 8.93 3.69 24.04.08 34.02-.02 9.98-.1 23.84-1.88 34-2 10.16-.12 19.31-5.3 28.93-7.07 9.62-1.78 17.05-6.54 25.07-10.93-3.88 1.38-10.05 3.34-15 4-8.82 3.54-17.12 5.91-26.78 8.22-9.65 2.31-19.76 4.27-30.22 4.78-10.46.51-24.63.13-35 0-10.37-.13-21.91-.29-30.92-4.08-9.02-3.78-19.46-3.24-24.08-10.92-3.05.46-5.6-.73-8-1-.85 4.45-2.56-2.91-5-3-1.45 2.49-3.26 4.64-5 7-1.78-3.69-7.52-1.98-9-6Z"/>
  <path fill="#817364" stroke="None" d="M322 439c.97.36 3.31 4.01 4 5 .5-.02 1 0 1 0 16.69 0 33.22 6.43 50 8 19.14 1.8 39.96-.16 58-3s32.95-12.86 51-15c.49-.06 1.51.08 2 0 3.03-1.23 5.5-6.48 8-9-8.6 9.77-18.26 6.74-28.78 10.22-10.51 3.49-20.4 7.31-31.55 10.45-11.15 3.15-26.74 2.56-38.67 4.33-11.93 1.77-25.57-2.09-37-3-11.43-.91-24.49-5.25-34-4-.85-1.35-2.3-3.49-4-4Z"/>
  <path fill="#06071C" stroke="None" d="M120 432v3c6.62-1.88 11.27 6.83 17 2-.59 1.56-1.26 15.87 3 10-5.51 1.71-2.08-6.82 0-9-4.75-2.48-10.01-5.42-8-12-2.91 3.78-6.3 10.87-12 6Z"/>
  <path fill="#030519" stroke="None" d="M143 449h-3c1.81 4.28 9.81 4.86 14 3 4.06 3.95 7.61 10.32 12 13 1.54-3.12.19-6.97 2-10 .74.43 1.84 2.37 2 3-.96-2.7 1.6-6.25 0-8-1.61 3.61-5.08 6.51-4 11-3.6-2.8-7.01-5.89-10-9 3.91-7.39 9.49-17.19 17-20-.15-1.18.43-2.06 1-3-5.82.31-13.8 8.22-15.7 13.3-1.89 5.08-13.04 15.77-15.3 6.7Z"/>
  <path fill="#08071E" stroke="None" d="M170 460c-2.53 1.71.11 5.01 1 7 1.42-1.88 3.57-2.62 6-3 .55 5.73 6.12 1.52 8 0-.25 4.62.41 13.8 7 10 2.62 5.91 2.34 7.78 6 3-4.57-3.54.71-12.07-3.67-18.33-4.38-6.26 13.6-10.84 5.67-17.67 1.27 5.35-13.74 10.85-9.92 15.92 3.82 5.07 8.16 14.11-.05 15.05-8.21.94-2.13-16.96-4.03-20.97-4.45 3.49-4.31 9.58-4 15-7.67-1.55 1.13-9.65 0-16s6.1-13.13 4-20c-5.28 2.43-8.34 13.69-7.67 20.33.67 6.64-5.58 17.46-8.33 9.67Z"/>
  <path fill="#672F4F" stroke="None" d="M575 437c-7.39 3.86-17.45 3.77-23.25 9.75-5.8 5.99-13.74 8.54-20.75 9.25-11.87 17.18-46.78 3.1-39-19-4.8.74-11.59 1.96-12 8-6.76 4.12-18.33-.38-24.78 4.22-6.44 4.6-16.82.32-22.22 3.78-.35.23-1 0-1 0-4.74 11.6-23.99 3.39-34.02 6.98-10.04 3.58-28.05-1.78-39.05-1.91-11-.13-24.57-3.44-34.01-8.99-9.44-5.56-20.96-7.71-31.92-10.08v-4c-1.41.02-1.97.78-4 2-7.12 4.27-17.38-2.26-25-5 3.01 1.3 6.44 3.3 10 4 2.86 12.92 17.32 14.3 28.75 18.2 11.43 3.9 24.02 5.31 37.25 7.8 13.22 2.49 27.49 5.83 42 5 14.51-.83 29.06-.12 43-3 4.99 10.5 14.54-3.54 22-2 7.46 1.54 19.37-5.97 25.75-5.2 6.39.78 12.35 2.85 19.17 6.28 6.82 3.43 15.85 4.94 23.01 1.99 7.15-2.95 20.27 3.21 18.07-7.07 2.75 3.61 5.38 2.13 6-2 8.57.36 10.59-7.67 17.25-9.75 6.67-2.07 14.25-4.06 18.75-9.25Z"/>
  <path fill="#815B5D" stroke="None" d="M488 434c-.49.08-1.51-.06-2 0-10.75 3.72-20.48 10.7-32.67 11.33-12.19.63-21.98 9.45-34.33 9.67-12.35.21-30.21-.52-42-3-16.78-1.57-33.31-8-50-8 6.11 4.53 16.3 3.34 24.07 6.93 7.78 3.58 19.14.67 27.93 3.07 8.8 2.39 20.36-3.1 29.01 1.99 8.64 5.1 16.12-1.26 23.99-2.99 0 0 .65.23 1 0 3.87-5.41 14.98-1.8 21-5s15.51-2.81 21.78-6.22c6.27-3.42 13.07-5.02 18.22-9.78-1.25.86-4.47 1.73-6 2Z"/>
  <path fill="#7C5C57" stroke="None" d="M529 438c.13-.22 1 0 1 0 1.12-3.2 4.64.57 7 2 2.59 1.57 5.51 3.25 7 6 3.08-.91 5.33-3.65 5-7 7.64 5.48-6.59 8.26-11 9-4.41.74-19.17-.13-13 8-4.49.17-8.02 3.26-13 2-.14-2.25 2.16-3.71 2-6 0-4.54-3.99-9.77-2-15 1.88.25 1.46 2.54 3 3 3.54 2.59 2.39 3.23 5.26 6.74 2.86 3.52 5.42-6.4 5.74-6.74-6.9.24-10.15-4.65-16.25-2.59-6.1 2.06-9.12 3.4-8.75 11.59.38 8.18 8.37 6.24 9 13 7.64.72 15.65-1.61 20.92-7.08 5.28-5.46 15.56-1.28 19.33-8.67 3.77-7.4 14.1-4.5 18.75-8.25 0 0-.24-.67 0-1-4.46-.23-8.85.05-13 1 .1-2.04-.41-4.32 1-6 0 0-.95-.15-1 0-2.54 6.42-8.91 4.21-12 10-5.76-1.38-8.79-7.64-15-7 .16.97-.2 2.04 0 3Z"/>
  <path fill="#7F816B" stroke="None" d="M560 432h-2c-2.93 4.06 3.21 4.52 6 4-1.06-1.22-2.65-3.17-4-4Z"/>
  <path fill="#81665F" stroke="None" d="M377 452c11.79 2.48 29.65 3.21 42 3 12.35-.22 22.14-9.04 34.33-9.67 12.19-.63 21.92-7.61 32.67-11.33-18.05 2.14-32.96 12.16-51 15s-38.86 4.8-58 3Z"/>
  <path fill="#814958" stroke="None" d="M432 453c-7.87 1.73-15.35 8.09-23.99 2.99-8.65-5.09-20.21.4-29.01-1.99-8.79-2.4-20.15.51-27.93-3.07-7.77-3.59-17.96-2.4-24.07-6.93 0 0-.5-.02-1 0-4.78-4.47-15.83.58-16-8-5.94 7.71-9.72-1.08-17-1v4c10.96 2.37 22.48 4.52 31.92 10.08 9.44 5.55 23.01 8.86 34.01 8.99 11 .13 29.01 5.49 39.05 1.91 10.03-3.59 29.28 4.62 34.02-6.98Z"/>
  <path fill="#8FA26A" stroke="None" d="M530 438c1.97 3.4 1.69 7.28 3 11 2.09-2.84 5.63-2.52 8-4-.81-2.04-3.27-2.97-4-5-2.36-1.43-5.88-5.2-7-2Z"/>
  <path fill="#909F69" stroke="None" d="M514 452c8.05 6.53 3.24-9.21 1-12-1.54-.46-1.12-2.75-3-3-1.99 5.23 2 10.46 2 15Z"/>
  <path fill="#84775D" stroke="None" d="M526 440c-.32.34-2.88 10.26-5.74 6.74-2.87-3.51-1.72-4.15-5.26-6.74 2.24 2.79 7.05 18.53-1 12 .16 2.29-2.14 3.75-2 6 4.98 1.26 8.51-1.83 13-2-6.17-8.13 8.59-7.26 13-8 4.41-.74 18.64-3.52 11-9 .33 3.35-1.92 6.09-5 7-1.49-2.75-4.41-4.43-7-6 .73 2.03 3.19 2.96 4 5-2.37 1.48-5.91 1.16-8 4-1.31-3.72-1.03-7.6-3-11 0 0-.87-.22-1 0-.9 1.51-1.29 1.66-3 2Z"/>
  <path fill="#0F0316" stroke="None" d="M546 490h7c-1.55 5.94 3.37 17.62 8 8 3.56-.05 11.84 1.48 11.03-3.97-.81-5.46 8.01-3.49 4.97-8.03 4.23-.94 6.43-2.61 11 0-5.65-7.21-2.5-18.79 0-28-4.88 9.23-3.4 24.56-15 29-1.88-8.31-1.59-18.4-2-26-5.38 10.41 1.17 23.11-2 34-11.9-5.15-15.28-21.66-29-26 3.09 6.74 22.16 18.72 6 21Z"/>
  <path fill="#150419" stroke="None" d="M514 483c-.59 4.62-.32 9.12 0 13 .34-1.56-.75-4.17 1-5 .17 3.09 1.6 5.74 1 9 5.27-4.53 9.08 7.93 16 6 .97-1.98-.9-4.73-1-6v4c-12.87-2.07-15.96-16.78-15-27-1.6 1.29-1.74 3.97-2 6Z"/>
  <path fill="#090321" stroke="None" d="M514 502c-.74 4.95 1.39 9.16 1 14-1.5-2.81-1.96-5.22-2 0-7.72 2.85-16.65 2.64-24.98 4.02-8.32 1.39-16.78-2.58-26.02-1.02-9.24 1.56-16.02.07-25 1-8.98.93-17.89-.45-26-1s-16.88-4.92-26-3c-9.12 1.92-16.54-2.19-23.75-2.2-7.22-.01-13.9-3.77-21.25-3.8-7.35-.03-24.69-1.96-16 4-12.23-.29-23-3.28-36-2-2.15-6.64-8.65-1.05-13.98-4.02-5.32-2.98-16.4 2.41-18.02-3.98-2.7-.55-8.99 1.77-8-3-7.33-2.7-21.36 2.04-27.75-2.25-6.39-4.3-11.75-10.49-10.25-17.75-5.45 12.26 12.97 19.02 18.23 29.77S247.36 528.28 248 542c21.12-.61 42.64 6.13 63.93 3.93 21.28-2.21 36.55-7.43 58.07-7.93 21.52-.5 45.54 1.95 64.99 3.01 19.46 1.05 37.3-9.98 58.01-7.01 3.82-10.22 14.06-11.23 23-14 1.04-6.21-1.47-12.58-2-18Z"/>
  <path fill="#09010C" stroke="None" d="M545 491c-7.8-5.76-5.98 7.62 0 0Z"/>
</svg>